<svg width="1103" height="48" viewBox="0 0 1103 48" fill="none" xmlns="http://www.w3.org/2000/svg">
<rect x="0.5" y="0.5" width="47" height="47" rx="7.5" stroke="url(#paint0_linear_402_1170)"/>
<path d="M20.1115 31.7778H17.7782C17.3657 31.7778 16.97 31.6139 16.6783 31.3221C16.3865 31.0304 16.2227 30.6348 16.2227 30.2222V24.7778C16.2227 24.3652 16.3865 23.9695 16.6783 23.6778C16.97 23.3861 17.3657 23.2222 17.7782 23.2222H20.1115M25.556 21.6666V18.5555C25.556 17.9367 25.3102 17.3432 24.8726 16.9056C24.435 16.468 23.8415 16.2222 23.2227 16.2222L20.1115 23.2222V31.7778H28.8849C29.26 31.782 29.6241 31.6505 29.9099 31.4075C30.1958 31.1646 30.3842 30.8265 30.4404 30.4555L31.5138 23.4555C31.5476 23.2326 31.5326 23.005 31.4697 22.7884C31.4068 22.5718 31.2976 22.3715 31.1497 22.2014C31.0017 22.0312 30.8185 21.8953 30.6128 21.8029C30.407 21.7106 30.1837 21.6641 29.9582 21.6666H25.556Z" stroke="#C2B7FF" stroke-width="1.5" stroke-linecap="round" stroke-linejoin="round"/>
<path d="M59.328 31V19.08H60.896V24.392H66.864V19.08H68.448V31H66.864V25.832H60.896V31H59.328ZM74.8856 31.192C74.0536 31.192 73.3123 30.9947 72.6616 30.6C72.011 30.2053 71.499 29.6667 71.1256 28.984C70.7523 28.2907 70.5656 27.5173 70.5656 26.664C70.5656 25.8 70.747 25.032 71.1096 24.36C71.483 23.688 71.9843 23.16 72.6136 22.776C73.2536 22.3813 73.9683 22.184 74.7576 22.184C75.3976 22.184 75.963 22.3013 76.4536 22.536C76.955 22.76 77.3763 23.0693 77.7176 23.464C78.0696 23.848 78.3363 24.2907 78.5176 24.792C78.7096 25.2827 78.8056 25.7947 78.8056 26.328C78.8056 26.4453 78.795 26.5787 78.7736 26.728C78.763 26.8667 78.747 27 78.7256 27.128H71.6536V25.848H77.8616L77.1576 26.424C77.2536 25.8693 77.2003 25.3733 76.9976 24.936C76.795 24.4987 76.4963 24.152 76.1016 23.896C75.707 23.64 75.259 23.512 74.7576 23.512C74.2563 23.512 73.7976 23.64 73.3816 23.896C72.9656 24.152 72.6403 24.52 72.4056 25C72.1816 25.4693 72.091 26.0293 72.1336 26.68C72.091 27.3093 72.187 27.864 72.4216 28.344C72.667 28.8133 73.0083 29.1813 73.4456 29.448C73.8936 29.704 74.379 29.832 74.9016 29.832C75.4776 29.832 75.963 29.6987 76.3576 29.432C76.7523 29.1653 77.0723 28.824 77.3176 28.408L78.5656 29.048C78.395 29.4427 78.1283 29.8053 77.7656 30.136C77.4136 30.456 76.9923 30.712 76.5016 30.904C76.0216 31.096 75.483 31.192 74.8856 31.192ZM83.1644 31.192C82.599 31.192 82.0977 31.0907 81.6604 30.888C81.2337 30.6747 80.8977 30.3867 80.6524 30.024C80.407 29.6507 80.2844 29.224 80.2844 28.744C80.2844 28.2853 80.3804 27.8747 80.5724 27.512C80.775 27.1387 81.0844 26.824 81.5004 26.568C81.927 26.312 82.4604 26.1307 83.1004 26.024L86.3004 25.496V26.744L83.4364 27.224C82.8817 27.32 82.4764 27.496 82.2204 27.752C81.975 28.008 81.8524 28.3227 81.8524 28.696C81.8524 29.048 81.991 29.3413 82.2684 29.576C82.5564 29.8107 82.9137 29.928 83.3404 29.928C83.8844 29.928 84.3537 29.816 84.7484 29.592C85.1537 29.3573 85.4684 29.0427 85.6924 28.648C85.927 28.2533 86.0444 27.816 86.0444 27.336V25.144C86.0444 24.6747 85.8684 24.296 85.5164 24.008C85.175 23.7093 84.7217 23.56 84.1564 23.56C83.6657 23.56 83.2284 23.688 82.8444 23.944C82.471 24.1893 82.1937 24.52 82.0124 24.936L80.7164 24.264C80.8764 23.8693 81.1324 23.5173 81.4844 23.208C81.8364 22.888 82.247 22.6373 82.7164 22.456C83.1857 22.2747 83.6764 22.184 84.1884 22.184C84.8497 22.184 85.431 22.312 85.9324 22.568C86.4337 22.8133 86.823 23.16 87.1004 23.608C87.3884 24.0453 87.5324 24.5573 87.5324 25.144V31H86.0764V29.368L86.3484 29.464C86.167 29.8053 85.9217 30.104 85.6124 30.36C85.303 30.616 84.9404 30.8187 84.5244 30.968C84.1084 31.1173 83.655 31.192 83.1644 31.192ZM89.8395 31V18.888H91.3275V31H89.8395ZM97.1404 31.096C96.2977 31.096 95.647 30.856 95.1884 30.376C94.7404 29.896 94.5164 29.2187 94.5164 28.344V23.8H92.9484V22.376H93.2684C93.6524 22.376 93.9564 22.2587 94.1804 22.024C94.4044 21.7893 94.5164 21.48 94.5164 21.096V20.392H96.0044V22.376H97.9404V23.8H96.0044V28.296C96.0044 28.584 96.047 28.8347 96.1324 29.048C96.2284 29.2613 96.383 29.432 96.5964 29.56C96.8097 29.6773 97.0924 29.736 97.4444 29.736C97.519 29.736 97.6097 29.7307 97.7164 29.72C97.8337 29.7093 97.9404 29.6987 98.0364 29.688V31C97.8977 31.032 97.743 31.0533 97.5724 31.064C97.4017 31.0853 97.2577 31.096 97.1404 31.096ZM99.9801 31V18.888H101.468V24.056L101.196 23.912C101.409 23.368 101.751 22.9467 102.22 22.648C102.7 22.3387 103.26 22.184 103.9 22.184C104.519 22.184 105.068 22.3227 105.548 22.6C106.039 22.8773 106.423 23.2613 106.7 23.752C106.988 24.2427 107.132 24.7973 107.132 25.416V31H105.628V25.896C105.628 25.416 105.537 25.0107 105.356 24.68C105.185 24.3493 104.945 24.0933 104.636 23.912C104.327 23.72 103.969 23.624 103.564 23.624C103.169 23.624 102.812 23.72 102.492 23.912C102.172 24.0933 101.921 24.3547 101.74 24.696C101.559 25.0267 101.468 25.4267 101.468 25.896V31H99.9801ZM116.027 31.192C115.184 31.192 114.432 30.9947 113.771 30.6C113.12 30.2053 112.608 29.6667 112.235 28.984C111.862 28.3013 111.675 27.5333 111.675 26.68C111.675 25.816 111.862 25.048 112.235 24.376C112.608 23.704 113.12 23.1707 113.771 22.776C114.432 22.3813 115.184 22.184 116.027 22.184C116.592 22.184 117.12 22.2853 117.611 22.488C118.102 22.6907 118.534 22.9627 118.907 23.304C119.28 23.6453 119.552 24.0453 119.723 24.504L118.395 25.144C118.192 24.696 117.883 24.3333 117.467 24.056C117.051 23.768 116.571 23.624 116.027 23.624C115.504 23.624 115.03 23.7573 114.603 24.024C114.187 24.2907 113.856 24.6533 113.611 25.112C113.366 25.5707 113.243 26.0987 113.243 26.696C113.243 27.272 113.366 27.7947 113.611 28.264C113.856 28.7227 114.187 29.0853 114.603 29.352C115.03 29.6187 115.504 29.752 116.027 29.752C116.571 29.752 117.051 29.6133 117.467 29.336C117.883 29.048 118.192 28.6693 118.395 28.2L119.723 28.872C119.552 29.32 119.28 29.72 118.907 30.072C118.534 30.4133 118.102 30.6853 117.611 30.888C117.12 31.0907 116.592 31.192 116.027 31.192ZM124.086 31.192C123.521 31.192 123.02 31.0907 122.582 30.888C122.156 30.6747 121.82 30.3867 121.574 30.024C121.329 29.6507 121.206 29.224 121.206 28.744C121.206 28.2853 121.302 27.8747 121.494 27.512C121.697 27.1387 122.006 26.824 122.422 26.568C122.849 26.312 123.382 26.1307 124.022 26.024L127.222 25.496V26.744L124.358 27.224C123.804 27.32 123.398 27.496 123.142 27.752C122.897 28.008 122.774 28.3227 122.774 28.696C122.774 29.048 122.913 29.3413 123.19 29.576C123.478 29.8107 123.836 29.928 124.262 29.928C124.806 29.928 125.276 29.816 125.67 29.592C126.076 29.3573 126.39 29.0427 126.614 28.648C126.849 28.2533 126.966 27.816 126.966 27.336V25.144C126.966 24.6747 126.79 24.296 126.438 24.008C126.097 23.7093 125.644 23.56 125.078 23.56C124.588 23.56 124.15 23.688 123.766 23.944C123.393 24.1893 123.116 24.52 122.934 24.936L121.638 24.264C121.798 23.8693 122.054 23.5173 122.406 23.208C122.758 22.888 123.169 22.6373 123.638 22.456C124.108 22.2747 124.598 22.184 125.11 22.184C125.772 22.184 126.353 22.312 126.854 22.568C127.356 22.8133 127.745 23.16 128.022 23.608C128.31 24.0453 128.454 24.5573 128.454 25.144V31H126.998V29.368L127.27 29.464C127.089 29.8053 126.844 30.104 126.534 30.36C126.225 30.616 125.862 30.8187 125.446 30.968C125.03 31.1173 124.577 31.192 124.086 31.192ZM130.761 31V22.376H132.217V23.96L132.057 23.736C132.26 23.2453 132.569 22.8827 132.985 22.648C133.401 22.4027 133.908 22.28 134.505 22.28H135.033V23.688H134.281C133.673 23.688 133.183 23.88 132.809 24.264C132.436 24.6373 132.249 25.1707 132.249 25.864V31H130.761ZM140.323 31.192C139.491 31.192 138.75 30.9947 138.099 30.6C137.448 30.2053 136.936 29.6667 136.563 28.984C136.19 28.2907 136.003 27.5173 136.003 26.664C136.003 25.8 136.184 25.032 136.547 24.36C136.92 23.688 137.422 23.16 138.051 22.776C138.691 22.3813 139.406 22.184 140.195 22.184C140.835 22.184 141.4 22.3013 141.891 22.536C142.392 22.76 142.814 23.0693 143.155 23.464C143.507 23.848 143.774 24.2907 143.955 24.792C144.147 25.2827 144.243 25.7947 144.243 26.328C144.243 26.4453 144.232 26.5787 144.211 26.728C144.2 26.8667 144.184 27 144.163 27.128H137.091V25.848H143.299L142.595 26.424C142.691 25.8693 142.638 25.3733 142.435 24.936C142.232 24.4987 141.934 24.152 141.539 23.896C141.144 23.64 140.696 23.512 140.195 23.512C139.694 23.512 139.235 23.64 138.819 23.896C138.403 24.152 138.078 24.52 137.843 25C137.619 25.4693 137.528 26.0293 137.571 26.68C137.528 27.3093 137.624 27.864 137.859 28.344C138.104 28.8133 138.446 29.1813 138.883 29.448C139.331 29.704 139.816 29.832 140.339 29.832C140.915 29.832 141.4 29.6987 141.795 29.432C142.19 29.1653 142.51 28.824 142.755 28.408L144.003 29.048C143.832 29.4427 143.566 29.8053 143.203 30.136C142.851 30.456 142.43 30.712 141.939 30.904C141.459 31.096 140.92 31.192 140.323 31.192Z" fill="white"/>
<rect x="178.5" y="0.5" width="47" height="47" rx="7.5" stroke="url(#paint1_linear_402_1170)"/>
<path d="M198.112 31.7778H195.778C195.366 31.7778 194.97 31.6139 194.678 31.3221C194.387 31.0304 194.223 30.6348 194.223 30.2222V24.7778C194.223 24.3652 194.387 23.9695 194.678 23.6778C194.97 23.3861 195.366 23.2222 195.778 23.2222H198.112M203.556 21.6666V18.5555C203.556 17.9367 203.31 17.3432 202.873 16.9056C202.435 16.468 201.841 16.2222 201.223 16.2222L198.112 23.2222V31.7778H206.885C207.26 31.782 207.624 31.6505 207.91 31.4075C208.196 31.1646 208.384 30.8265 208.44 30.4555L209.514 23.4555C209.548 23.2326 209.533 23.005 209.47 22.7884C209.407 22.5718 209.298 22.3715 209.15 22.2014C209.002 22.0312 208.818 21.8953 208.613 21.8029C208.407 21.7106 208.184 21.6641 207.958 21.6666H203.556Z" stroke="#C2B7FF" stroke-width="1.5" stroke-linecap="round" stroke-linejoin="round"/>
<path d="M237.328 31V19.08H238.768L243.232 25.432H242.496L246.928 19.08H248.368V31H246.784V21.064L247.344 21.24L242.912 27.48H242.784L238.4 21.24L238.896 21.064V31H237.328ZM254.808 31.192C253.976 31.192 253.234 30.9947 252.584 30.6C251.933 30.2053 251.421 29.6667 251.048 28.984C250.674 28.2907 250.488 27.5173 250.488 26.664C250.488 25.8 250.669 25.032 251.032 24.36C251.405 23.688 251.906 23.16 252.536 22.776C253.176 22.3813 253.89 22.184 254.68 22.184C255.32 22.184 255.885 22.3013 256.376 22.536C256.877 22.76 257.298 23.0693 257.64 23.464C257.992 23.848 258.258 24.2907 258.44 24.792C258.632 25.2827 258.727 25.7947 258.727 26.328C258.727 26.4453 258.717 26.5787 258.696 26.728C258.685 26.8667 258.669 27 258.648 27.128H251.576V25.848H257.784L257.08 26.424C257.176 25.8693 257.122 25.3733 256.92 24.936C256.717 24.4987 256.418 24.152 256.024 23.896C255.629 23.64 255.181 23.512 254.68 23.512C254.178 23.512 253.72 23.64 253.304 23.896C252.888 24.152 252.562 24.52 252.328 25C252.104 25.4693 252.013 26.0293 252.056 26.68C252.013 27.3093 252.109 27.864 252.344 28.344C252.589 28.8133 252.93 29.1813 253.368 29.448C253.816 29.704 254.301 29.832 254.824 29.832C255.4 29.832 255.885 29.6987 256.28 29.432C256.674 29.1653 256.994 28.824 257.24 28.408L258.488 29.048C258.317 29.4427 258.05 29.8053 257.688 30.136C257.336 30.456 256.914 30.712 256.424 30.904C255.944 31.096 255.405 31.192 254.808 31.192ZM264.588 31.192C263.777 31.192 263.046 30.9947 262.396 30.6C261.756 30.2053 261.249 29.6667 260.876 28.984C260.502 28.3013 260.316 27.5387 260.316 26.696C260.316 25.832 260.502 25.064 260.876 24.392C261.249 23.7093 261.756 23.1707 262.396 22.776C263.046 22.3813 263.777 22.184 264.588 22.184C265.302 22.184 265.937 22.3387 266.492 22.648C267.046 22.9467 267.484 23.352 267.804 23.864L267.564 24.232V18.888H269.068V31H267.612V29.16L267.804 29.416C267.505 29.9813 267.068 30.4187 266.492 30.728C265.926 31.0373 265.292 31.192 264.588 31.192ZM264.716 29.752C265.26 29.752 265.745 29.6187 266.172 29.352C266.598 29.0853 266.934 28.7227 267.18 28.264C267.436 27.7947 267.564 27.272 267.564 26.696C267.564 26.1093 267.436 25.5867 267.18 25.128C266.934 24.6587 266.598 24.2907 266.172 24.024C265.745 23.7573 265.26 23.624 264.716 23.624C264.182 23.624 263.697 23.7627 263.26 24.04C262.833 24.3067 262.497 24.6693 262.252 25.128C262.006 25.576 261.884 26.0987 261.884 26.696C261.884 27.272 262.006 27.7947 262.252 28.264C262.497 28.7227 262.833 29.0853 263.26 29.352C263.686 29.6187 264.172 29.752 264.716 29.752ZM271.371 31V22.376H272.859V31H271.371ZM271.371 21V19.08H272.859V21H271.371ZM279.168 31.192C278.325 31.192 277.573 30.9947 276.912 30.6C276.261 30.2053 275.749 29.6667 275.376 28.984C275.002 28.3013 274.816 27.5333 274.816 26.68C274.816 25.816 275.002 25.048 275.376 24.376C275.749 23.704 276.261 23.1707 276.912 22.776C277.573 22.3813 278.325 22.184 279.168 22.184C279.733 22.184 280.261 22.2853 280.752 22.488C281.242 22.6907 281.674 22.9627 282.048 23.304C282.421 23.6453 282.693 24.0453 282.864 24.504L281.536 25.144C281.333 24.696 281.024 24.3333 280.608 24.056C280.192 23.768 279.712 23.624 279.168 23.624C278.645 23.624 278.17 23.7573 277.744 24.024C277.328 24.2907 276.997 24.6533 276.752 25.112C276.506 25.5707 276.384 26.0987 276.384 26.696C276.384 27.272 276.506 27.7947 276.752 28.264C276.997 28.7227 277.328 29.0853 277.744 29.352C278.17 29.6187 278.645 29.752 279.168 29.752C279.712 29.752 280.192 29.6133 280.608 29.336C281.024 29.048 281.333 28.6693 281.536 28.2L282.864 28.872C282.693 29.32 282.421 29.72 282.048 30.072C281.674 30.4133 281.242 30.6853 280.752 30.888C280.261 31.0907 279.733 31.192 279.168 31.192ZM287.227 31.192C286.662 31.192 286.16 31.0907 285.723 30.888C285.296 30.6747 284.96 30.3867 284.715 30.024C284.47 29.6507 284.347 29.224 284.347 28.744C284.347 28.2853 284.443 27.8747 284.635 27.512C284.838 27.1387 285.147 26.824 285.563 26.568C285.99 26.312 286.523 26.1307 287.163 26.024L290.363 25.496V26.744L287.499 27.224C286.944 27.32 286.539 27.496 286.283 27.752C286.038 28.008 285.915 28.3227 285.915 28.696C285.915 29.048 286.054 29.3413 286.331 29.576C286.619 29.8107 286.976 29.928 287.403 29.928C287.947 29.928 288.416 29.816 288.811 29.592C289.216 29.3573 289.531 29.0427 289.755 28.648C289.99 28.2533 290.107 27.816 290.107 27.336V25.144C290.107 24.6747 289.931 24.296 289.579 24.008C289.238 23.7093 288.784 23.56 288.219 23.56C287.728 23.56 287.291 23.688 286.907 23.944C286.534 24.1893 286.256 24.52 286.075 24.936L284.779 24.264C284.939 23.8693 285.195 23.5173 285.547 23.208C285.899 22.888 286.31 22.6373 286.779 22.456C287.248 22.2747 287.739 22.184 288.251 22.184C288.912 22.184 289.494 22.312 289.995 22.568C290.496 22.8133 290.886 23.16 291.163 23.608C291.451 24.0453 291.595 24.5573 291.595 25.144V31H290.139V29.368L290.411 29.464C290.23 29.8053 289.984 30.104 289.675 30.36C289.366 30.616 289.003 30.8187 288.587 30.968C288.171 31.1173 287.718 31.192 287.227 31.192ZM293.902 31V18.888H295.39V31H293.902Z" fill="white"/>
<rect x="329.5" y="0.5" width="47" height="47" rx="7.5" stroke="url(#paint2_linear_402_1170)"/>
<path d="M349.112 31.7778H346.778C346.366 31.7778 345.97 31.6139 345.678 31.3221C345.387 31.0304 345.223 30.6348 345.223 30.2222V24.7778C345.223 24.3652 345.387 23.9695 345.678 23.6778C345.97 23.3861 346.366 23.2222 346.778 23.2222H349.112M354.556 21.6666V18.5555C354.556 17.9367 354.31 17.3432 353.873 16.9056C353.435 16.468 352.841 16.2222 352.223 16.2222L349.112 23.2222V31.7778H357.885C358.26 31.782 358.624 31.6505 358.91 31.4075C359.196 31.1646 359.384 30.8265 359.44 30.4555L360.514 23.4555C360.548 23.2326 360.533 23.005 360.47 22.7884C360.407 22.5718 360.298 22.3715 360.15 22.2014C360.002 22.0312 359.818 21.8953 359.613 21.8029C359.407 21.7106 359.184 21.6641 358.958 21.6666H354.556Z" stroke="#C2B7FF" stroke-width="1.5" stroke-linecap="round" stroke-linejoin="round"/>
<path d="M388.328 31V19.08H392.536C393.325 19.08 394.019 19.2293 394.616 19.528C395.213 19.8267 395.677 20.2533 396.008 20.808C396.349 21.3627 396.52 22.0133 396.52 22.76C396.52 23.6027 396.307 24.3173 395.88 24.904C395.453 25.4907 394.877 25.912 394.152 26.168L396.92 31H395.096L392.184 25.832L393.224 26.44H389.896V31H388.328ZM389.896 25H392.584C393.053 25 393.464 24.9093 393.816 24.728C394.168 24.5467 394.44 24.2853 394.632 23.944C394.835 23.6027 394.936 23.208 394.936 22.76C394.936 22.3013 394.835 21.9067 394.632 21.576C394.44 21.2347 394.168 20.9733 393.816 20.792C393.464 20.6107 393.053 20.52 392.584 20.52H389.896V25ZM402.011 31.192C401.179 31.192 400.437 30.9947 399.787 30.6C399.136 30.2053 398.624 29.6667 398.251 28.984C397.877 28.2907 397.691 27.5173 397.691 26.664C397.691 25.8 397.872 25.032 398.235 24.36C398.608 23.688 399.109 23.16 399.739 22.776C400.379 22.3813 401.093 22.184 401.883 22.184C402.523 22.184 403.088 22.3013 403.579 22.536C404.08 22.76 404.501 23.0693 404.843 23.464C405.195 23.848 405.461 24.2907 405.643 24.792C405.835 25.2827 405.931 25.7947 405.931 26.328C405.931 26.4453 405.92 26.5787 405.899 26.728C405.888 26.8667 405.872 27 405.851 27.128H398.779V25.848H404.987L404.283 26.424C404.379 25.8693 404.325 25.3733 404.123 24.936C403.92 24.4987 403.621 24.152 403.227 23.896C402.832 23.64 402.384 23.512 401.883 23.512C401.381 23.512 400.923 23.64 400.507 23.896C400.091 24.152 399.765 24.52 399.531 25C399.307 25.4693 399.216 26.0293 399.259 26.68C399.216 27.3093 399.312 27.864 399.547 28.344C399.792 28.8133 400.133 29.1813 400.571 29.448C401.019 29.704 401.504 29.832 402.027 29.832C402.603 29.832 403.088 29.6987 403.483 29.432C403.877 29.1653 404.197 28.824 404.443 28.408L405.691 29.048C405.52 29.4427 405.253 29.8053 404.891 30.136C404.539 30.456 404.117 30.712 403.627 30.904C403.147 31.096 402.608 31.192 402.011 31.192ZM411.871 31.192C411.028 31.192 410.276 30.9947 409.615 30.6C408.964 30.2053 408.452 29.6667 408.079 28.984C407.705 28.3013 407.519 27.5333 407.519 26.68C407.519 25.816 407.705 25.048 408.079 24.376C408.452 23.704 408.964 23.1707 409.615 22.776C410.276 22.3813 411.028 22.184 411.871 22.184C412.436 22.184 412.964 22.2853 413.455 22.488C413.945 22.6907 414.377 22.9627 414.751 23.304C415.124 23.6453 415.396 24.0453 415.567 24.504L414.239 25.144C414.036 24.696 413.727 24.3333 413.311 24.056C412.895 23.768 412.415 23.624 411.871 23.624C411.348 23.624 410.873 23.7573 410.447 24.024C410.031 24.2907 409.7 24.6533 409.455 25.112C409.209 25.5707 409.087 26.0987 409.087 26.696C409.087 27.272 409.209 27.7947 409.455 28.264C409.7 28.7227 410.031 29.0853 410.447 29.352C410.873 29.6187 411.348 29.752 411.871 29.752C412.415 29.752 412.895 29.6133 413.311 29.336C413.727 29.048 414.036 28.6693 414.239 28.2L415.567 28.872C415.396 29.32 415.124 29.72 414.751 30.072C414.377 30.4133 413.945 30.6853 413.455 30.888C412.964 31.0907 412.436 31.192 411.871 31.192ZM417.975 34.52C417.783 34.52 417.591 34.504 417.399 34.472C417.207 34.4507 417.026 34.4027 416.855 34.328V33C416.973 33.0107 417.117 33.032 417.287 33.064C417.469 33.096 417.645 33.112 417.815 33.112C418.317 33.112 418.695 33 418.951 32.776C419.218 32.552 419.469 32.1733 419.703 31.64L420.247 30.344L420.215 31.64L416.535 22.376H418.151L421.015 29.736H420.535L423.383 22.376H425.031L421.143 32.024C420.962 32.4827 420.727 32.904 420.439 33.288C420.162 33.672 419.821 33.9707 419.415 34.184C419.01 34.408 418.53 34.52 417.975 34.52ZM430.199 31.192C429.356 31.192 428.604 30.9947 427.943 30.6C427.292 30.2053 426.78 29.6667 426.407 28.984C426.034 28.3013 425.847 27.5333 425.847 26.68C425.847 25.816 426.034 25.048 426.407 24.376C426.78 23.704 427.292 23.1707 427.943 22.776C428.604 22.3813 429.356 22.184 430.199 22.184C430.764 22.184 431.292 22.2853 431.783 22.488C432.274 22.6907 432.706 22.9627 433.079 23.304C433.452 23.6453 433.724 24.0453 433.895 24.504L432.567 25.144C432.364 24.696 432.055 24.3333 431.639 24.056C431.223 23.768 430.743 23.624 430.199 23.624C429.676 23.624 429.202 23.7573 428.775 24.024C428.359 24.2907 428.028 24.6533 427.783 25.112C427.538 25.5707 427.415 26.0987 427.415 26.696C427.415 27.272 427.538 27.7947 427.783 28.264C428.028 28.7227 428.359 29.0853 428.775 29.352C429.202 29.6187 429.676 29.752 430.199 29.752C430.743 29.752 431.223 29.6133 431.639 29.336C432.055 29.048 432.364 28.6693 432.567 28.2L433.895 28.872C433.724 29.32 433.452 29.72 433.079 30.072C432.706 30.4133 432.274 30.6853 431.783 30.888C431.292 31.0907 430.764 31.192 430.199 31.192ZM435.84 31V18.888H437.328V31H435.84ZM439.636 31V22.376H441.124V31H439.636ZM439.636 21V19.08H441.124V21H439.636ZM443.433 31V22.376H444.889V24.056L444.649 23.912C444.863 23.368 445.204 22.9467 445.673 22.648C446.153 22.3387 446.713 22.184 447.353 22.184C447.972 22.184 448.521 22.3227 449.001 22.6C449.492 22.8773 449.876 23.2613 450.153 23.752C450.441 24.2427 450.585 24.7973 450.585 25.416V31H449.081V25.896C449.081 25.416 448.996 25.0107 448.825 24.68C448.655 24.3493 448.409 24.0933 448.089 23.912C447.78 23.72 447.423 23.624 447.017 23.624C446.612 23.624 446.249 23.72 445.929 23.912C445.62 24.0933 445.375 24.3547 445.193 24.696C445.012 25.0267 444.921 25.4267 444.921 25.896V31H443.433ZM456.827 34.52C456.219 34.52 455.653 34.424 455.131 34.232C454.619 34.04 454.176 33.7733 453.803 33.432C453.44 33.1013 453.163 32.712 452.971 32.264L454.363 31.624C454.512 32.0293 454.795 32.3707 455.211 32.648C455.637 32.936 456.171 33.08 456.811 33.08C457.301 33.08 457.744 32.984 458.139 32.792C458.544 32.6107 458.864 32.3333 459.099 31.96C459.333 31.5973 459.451 31.1547 459.451 30.632V28.696L459.723 28.984C459.424 29.5707 458.992 30.0187 458.427 30.328C457.872 30.6373 457.259 30.792 456.587 30.792C455.776 30.792 455.051 30.6053 454.411 30.232C453.771 29.848 453.269 29.3307 452.907 28.68C452.544 28.0187 452.363 27.288 452.363 26.488C452.363 25.6773 452.544 24.9467 452.907 24.296C453.269 23.6453 453.765 23.1333 454.395 22.76C455.035 22.376 455.76 22.184 456.571 22.184C457.243 22.184 457.851 22.3387 458.395 22.648C458.949 22.9467 459.392 23.3627 459.723 23.896L459.499 24.296V22.376H460.955V30.632C460.955 31.3787 460.779 32.0453 460.427 32.632C460.075 33.2187 459.584 33.6773 458.955 34.008C458.336 34.3493 457.627 34.52 456.827 34.52ZM456.715 29.352C457.227 29.352 457.685 29.224 458.091 28.968C458.507 28.712 458.837 28.3707 459.083 27.944C459.328 27.5067 459.451 27.0213 459.451 26.488C459.451 25.9653 459.328 25.4853 459.083 25.048C458.837 24.6107 458.507 24.264 458.091 24.008C457.685 23.752 457.227 23.624 456.715 23.624C456.192 23.624 455.717 23.752 455.291 24.008C454.864 24.264 454.528 24.6107 454.283 25.048C454.048 25.4747 453.931 25.9547 453.931 26.488C453.931 27.0213 454.048 27.5067 454.283 27.944C454.528 28.3707 454.859 28.712 455.275 28.968C455.701 29.224 456.181 29.352 456.715 29.352Z" fill="white"/>
<rect x="495.5" y="0.5" width="47" height="47" rx="7.5" stroke="url(#paint3_linear_402_1170)"/>
<path d="M515.112 31.7778H512.778C512.366 31.7778 511.97 31.6139 511.678 31.3221C511.387 31.0304 511.223 30.6348 511.223 30.2222V24.7778C511.223 24.3652 511.387 23.9695 511.678 23.6778C511.97 23.3861 512.366 23.2222 512.778 23.2222H515.112M520.556 21.6666V18.5555C520.556 17.9367 520.31 17.3432 519.873 16.9056C519.435 16.468 518.841 16.2222 518.223 16.2222L515.112 23.2222V31.7778H523.885C524.26 31.782 524.624 31.6505 524.91 31.4075C525.196 31.1646 525.384 30.8265 525.44 30.4555L526.514 23.4555C526.548 23.2326 526.533 23.005 526.47 22.7884C526.407 22.5718 526.298 22.3715 526.15 22.2014C526.002 22.0312 525.818 21.8953 525.613 21.8029C525.407 21.7106 525.184 21.6641 524.958 21.6666H520.556Z" stroke="#C2B7FF" stroke-width="1.5" stroke-linecap="round" stroke-linejoin="round"/>
<path d="M559.816 31.192C558.973 31.192 558.195 31.0427 557.48 30.744C556.776 30.4347 556.157 30.0027 555.624 29.448C555.101 28.8933 554.696 28.2427 554.408 27.496C554.12 26.7493 553.976 25.9333 553.976 25.048C553.976 24.152 554.12 23.3307 554.408 22.584C554.696 21.8373 555.101 21.1867 555.624 20.632C556.147 20.0773 556.765 19.6507 557.48 19.352C558.195 19.0427 558.973 18.888 559.816 18.888C560.637 18.888 561.373 19.032 562.024 19.32C562.685 19.608 563.24 19.9813 563.688 20.44C564.147 20.8987 564.472 21.3893 564.664 21.912L563.224 22.568C562.947 21.9067 562.515 21.3733 561.928 20.968C561.341 20.552 560.637 20.344 559.816 20.344C558.984 20.344 558.243 20.5413 557.592 20.936C556.952 21.3307 556.451 21.88 556.088 22.584C555.725 23.288 555.544 24.1093 555.544 25.048C555.544 25.976 555.725 26.792 556.088 27.496C556.451 28.2 556.952 28.7493 557.592 29.144C558.243 29.5387 558.984 29.736 559.816 29.736C560.637 29.736 561.341 29.5333 561.928 29.128C562.515 28.712 562.947 28.1733 563.224 27.512L564.664 28.168C564.472 28.6907 564.147 29.1813 563.688 29.64C563.24 30.0987 562.685 30.472 562.024 30.76C561.373 31.048 560.637 31.192 559.816 31.192ZM566.621 31V18.888H568.109V24.056L567.837 23.912C568.05 23.368 568.391 22.9467 568.861 22.648C569.341 22.3387 569.901 22.184 570.541 22.184C571.159 22.184 571.709 22.3227 572.189 22.6C572.679 22.8773 573.063 23.2613 573.341 23.752C573.629 24.2427 573.773 24.7973 573.773 25.416V31H572.269V25.896C572.269 25.416 572.178 25.0107 571.997 24.68C571.826 24.3493 571.586 24.0933 571.277 23.912C570.967 23.72 570.61 23.624 570.205 23.624C569.81 23.624 569.453 23.72 569.133 23.912C568.813 24.0933 568.562 24.3547 568.381 24.696C568.199 25.0267 568.109 25.4267 568.109 25.896V31H566.621ZM578.43 31.192C577.865 31.192 577.363 31.0907 576.926 30.888C576.499 30.6747 576.163 30.3867 575.918 30.024C575.673 29.6507 575.55 29.224 575.55 28.744C575.55 28.2853 575.646 27.8747 575.838 27.512C576.041 27.1387 576.35 26.824 576.766 26.568C577.193 26.312 577.726 26.1307 578.366 26.024L581.566 25.496V26.744L578.702 27.224C578.147 27.32 577.742 27.496 577.486 27.752C577.241 28.008 577.118 28.3227 577.118 28.696C577.118 29.048 577.257 29.3413 577.534 29.576C577.822 29.8107 578.179 29.928 578.606 29.928C579.15 29.928 579.619 29.816 580.014 29.592C580.419 29.3573 580.734 29.0427 580.958 28.648C581.193 28.2533 581.31 27.816 581.31 27.336V25.144C581.31 24.6747 581.134 24.296 580.782 24.008C580.441 23.7093 579.987 23.56 579.422 23.56C578.931 23.56 578.494 23.688 578.11 23.944C577.737 24.1893 577.459 24.52 577.278 24.936L575.982 24.264C576.142 23.8693 576.398 23.5173 576.75 23.208C577.102 22.888 577.513 22.6373 577.982 22.456C578.451 22.2747 578.942 22.184 579.454 22.184C580.115 22.184 580.697 22.312 581.198 22.568C581.699 22.8133 582.089 23.16 582.366 23.608C582.654 24.0453 582.798 24.5573 582.798 25.144V31H581.342V29.368L581.614 29.464C581.433 29.8053 581.187 30.104 580.878 30.36C580.569 30.616 580.206 30.8187 579.79 30.968C579.374 31.1173 578.921 31.192 578.43 31.192ZM588.453 31.096C587.61 31.096 586.96 30.856 586.501 30.376C586.053 29.896 585.829 29.2187 585.829 28.344V23.8H584.261V22.376H584.581C584.965 22.376 585.269 22.2587 585.493 22.024C585.717 21.7893 585.829 21.48 585.829 21.096V20.392H587.317V22.376H589.253V23.8H587.317V28.296C587.317 28.584 587.36 28.8347 587.445 29.048C587.541 29.2613 587.696 29.432 587.909 29.56C588.122 29.6773 588.405 29.736 588.757 29.736C588.832 29.736 588.922 29.7307 589.029 29.72C589.146 29.7093 589.253 29.6987 589.349 29.688V31C589.21 31.032 589.056 31.0533 588.885 31.064C588.714 31.0853 588.57 31.096 588.453 31.096ZM595.757 31.192C595.063 31.192 594.429 31.0373 593.853 30.728C593.287 30.4187 592.85 29.9813 592.541 29.416L592.749 29.16V31H591.293V18.888H592.781V24.232L592.557 23.864C592.877 23.352 593.314 22.9467 593.869 22.648C594.423 22.3387 595.058 22.184 595.773 22.184C596.583 22.184 597.309 22.3813 597.949 22.776C598.599 23.1707 599.111 23.7093 599.485 24.392C599.858 25.064 600.045 25.832 600.045 26.696C600.045 27.5387 599.858 28.3013 599.485 28.984C599.111 29.6667 598.599 30.2053 597.949 30.6C597.309 30.9947 596.578 31.192 595.757 31.192ZM595.645 29.752C596.189 29.752 596.674 29.6187 597.101 29.352C597.527 29.0853 597.858 28.7227 598.093 28.264C598.338 27.7947 598.461 27.272 598.461 26.696C598.461 26.0987 598.338 25.576 598.093 25.128C597.858 24.6693 597.527 24.3067 597.101 24.04C596.674 23.7627 596.189 23.624 595.645 23.624C595.101 23.624 594.61 23.7573 594.173 24.024C593.746 24.2907 593.405 24.6587 593.149 25.128C592.903 25.5867 592.781 26.1093 592.781 26.696C592.781 27.272 592.903 27.7947 593.149 28.264C593.405 28.7227 593.746 29.0853 594.173 29.352C594.61 29.6187 595.101 29.752 595.645 29.752ZM606.092 31.192C605.26 31.192 604.508 31 603.836 30.616C603.164 30.2213 602.63 29.6827 602.236 29C601.841 28.3173 601.644 27.544 601.644 26.68C601.644 25.816 601.836 25.048 602.22 24.376C602.614 23.704 603.148 23.1707 603.82 22.776C604.492 22.3813 605.249 22.184 606.092 22.184C606.924 22.184 607.676 22.3813 608.348 22.776C609.02 23.16 609.548 23.688 609.932 24.36C610.326 25.032 610.524 25.8053 610.524 26.68C610.524 27.5547 610.321 28.3333 609.916 29.016C609.51 29.688 608.972 30.2213 608.3 30.616C607.638 31 606.902 31.192 606.092 31.192ZM606.092 29.752C606.625 29.752 607.105 29.6187 607.532 29.352C607.969 29.0853 608.31 28.7173 608.556 28.248C608.812 27.7787 608.94 27.256 608.94 26.68C608.94 26.0933 608.812 25.576 608.556 25.128C608.31 24.6693 607.969 24.3067 607.532 24.04C607.105 23.7627 606.625 23.624 606.092 23.624C605.548 23.624 605.057 23.7627 604.62 24.04C604.193 24.3067 603.852 24.6693 603.596 25.128C603.34 25.576 603.212 26.0933 603.212 26.68C603.212 27.256 603.34 27.7787 603.596 28.248C603.852 28.7173 604.193 29.0853 604.62 29.352C605.057 29.6187 605.548 29.752 606.092 29.752ZM615.812 31.096C614.97 31.096 614.319 30.856 613.86 30.376C613.412 29.896 613.188 29.2187 613.188 28.344V23.8H611.62V22.376H611.94C612.324 22.376 612.628 22.2587 612.852 22.024C613.076 21.7893 613.188 21.48 613.188 21.096V20.392H614.676V22.376H616.612V23.8H614.676V28.296C614.676 28.584 614.719 28.8347 614.804 29.048C614.9 29.2613 615.055 29.432 615.268 29.56C615.482 29.6773 615.764 29.736 616.116 29.736C616.191 29.736 616.282 29.7307 616.388 29.72C616.506 29.7093 616.612 29.6987 616.708 29.688V31C616.57 31.032 616.415 31.0533 616.244 31.064C616.074 31.0853 615.93 31.096 615.812 31.096Z" fill="white"/>
<rect x="650.5" y="0.5" width="47" height="47" rx="7.5" stroke="url(#paint4_linear_402_1170)"/>
<path d="M670.112 31.7778H667.778C667.366 31.7778 666.97 31.6139 666.678 31.3221C666.387 31.0304 666.223 30.6348 666.223 30.2222V24.7778C666.223 24.3652 666.387 23.9695 666.678 23.6778C666.97 23.3861 667.366 23.2222 667.778 23.2222H670.112M675.556 21.6666V18.5555C675.556 17.9367 675.31 17.3432 674.873 16.9056C674.435 16.468 673.841 16.2222 673.223 16.2222L670.112 23.2222V31.7778H678.885C679.26 31.782 679.624 31.6505 679.91 31.4075C680.196 31.1646 680.384 30.8265 680.44 30.4555L681.514 23.4555C681.548 23.2326 681.533 23.005 681.47 22.7884C681.407 22.5718 681.298 22.3715 681.15 22.2014C681.002 22.0312 680.818 21.8953 680.613 21.8029C680.407 21.7106 680.184 21.6641 679.958 21.6666H675.556Z" stroke="#C2B7FF" stroke-width="1.5" stroke-linecap="round" stroke-linejoin="round"/>
<path d="M709.328 31V19.08H710.896V29.56H716.128V31H709.328ZM717.891 31V19.08H719.459V29.56H724.691V31H717.891ZM726.453 31V19.08H727.893L732.357 25.432H731.621L736.053 19.08H737.493V31H735.909V21.064L736.469 21.24L732.037 27.48H731.909L727.525 21.24L728.021 21.064V31H726.453Z" fill="white"/>
<rect x="771.5" y="0.5" width="47" height="47" rx="7.5" stroke="url(#paint5_linear_402_1170)"/>
<path d="M791.112 31.7778H788.778C788.366 31.7778 787.97 31.6139 787.678 31.3221C787.387 31.0304 787.223 30.6348 787.223 30.2222V24.7778C787.223 24.3652 787.387 23.9695 787.678 23.6778C787.97 23.3861 788.366 23.2222 788.778 23.2222H791.112M796.556 21.6666V18.5555C796.556 17.9367 796.31 17.3432 795.873 16.9056C795.435 16.468 794.841 16.2222 794.223 16.2222L791.112 23.2222V31.7778H799.885C800.26 31.782 800.624 31.6505 800.91 31.4075C801.196 31.1646 801.384 30.8265 801.44 30.4555L802.514 23.4555C802.548 23.2326 802.533 23.005 802.47 22.7884C802.407 22.5718 802.298 22.3715 802.15 22.2014C802.002 22.0312 801.818 21.8953 801.613 21.8029C801.407 21.7106 801.184 21.6641 800.958 21.6666H796.556Z" stroke="#C2B7FF" stroke-width="1.5" stroke-linecap="round" stroke-linejoin="round"/>
<path d="M830.328 21V9.08H831.896V21H830.328ZM834.371 21V12.376H835.827V14.136L835.619 13.864C835.832 13.32 836.173 12.904 836.643 12.616C837.112 12.328 837.64 12.184 838.227 12.184C838.899 12.184 839.501 12.3707 840.035 12.744C840.579 13.1173 840.952 13.608 841.155 14.216L840.739 14.232C840.963 13.56 841.341 13.0533 841.875 12.712C842.408 12.36 843 12.184 843.651 12.184C844.248 12.184 844.787 12.3227 845.267 12.6C845.757 12.8773 846.147 13.2613 846.435 13.752C846.723 14.2427 846.867 14.7973 846.867 15.416V21H845.363V15.896C845.363 15.416 845.277 15.0107 845.107 14.68C844.936 14.3493 844.701 14.0933 844.403 13.912C844.115 13.72 843.773 13.624 843.379 13.624C842.995 13.624 842.648 13.72 842.339 13.912C842.04 14.0933 841.8 14.3547 841.619 14.696C841.448 15.0267 841.363 15.4267 841.363 15.896V21H839.859V15.896C839.859 15.416 839.773 15.0107 839.603 14.68C839.432 14.3493 839.197 14.0933 838.899 13.912C838.611 13.72 838.269 13.624 837.875 13.624C837.491 13.624 837.144 13.72 836.835 13.912C836.536 14.0933 836.296 14.3547 836.115 14.696C835.944 15.0267 835.859 15.4267 835.859 15.896V21H834.371ZM851.508 21.192C850.943 21.192 850.441 21.0907 850.004 20.888C849.577 20.6747 849.241 20.3867 848.996 20.024C848.751 19.6507 848.628 19.224 848.628 18.744C848.628 18.2853 848.724 17.8747 848.916 17.512C849.119 17.1387 849.428 16.824 849.844 16.568C850.271 16.312 850.804 16.1307 851.444 16.024L854.644 15.496V16.744L851.78 17.224C851.225 17.32 850.82 17.496 850.564 17.752C850.319 18.008 850.196 18.3227 850.196 18.696C850.196 19.048 850.335 19.3413 850.612 19.576C850.9 19.8107 851.257 19.928 851.684 19.928C852.228 19.928 852.697 19.816 853.092 19.592C853.497 19.3573 853.812 19.0427 854.036 18.648C854.271 18.2533 854.388 17.816 854.388 17.336V15.144C854.388 14.6747 854.212 14.296 853.86 14.008C853.519 13.7093 853.065 13.56 852.5 13.56C852.009 13.56 851.572 13.688 851.188 13.944C850.815 14.1893 850.537 14.52 850.356 14.936L849.06 14.264C849.22 13.8693 849.476 13.5173 849.828 13.208C850.18 12.888 850.591 12.6373 851.06 12.456C851.529 12.2747 852.02 12.184 852.532 12.184C853.193 12.184 853.775 12.312 854.276 12.568C854.777 12.8133 855.167 13.16 855.444 13.608C855.732 14.0453 855.876 14.5573 855.876 15.144V21H854.42V19.368L854.692 19.464C854.511 19.8053 854.265 20.104 853.956 20.36C853.647 20.616 853.284 20.8187 852.868 20.968C852.452 21.1173 851.999 21.192 851.508 21.192ZM862.295 24.52C861.687 24.52 861.122 24.424 860.599 24.232C860.087 24.04 859.645 23.7733 859.271 23.432C858.909 23.1013 858.631 22.712 858.439 22.264L859.831 21.624C859.981 22.0293 860.263 22.3707 860.679 22.648C861.106 22.936 861.639 23.08 862.279 23.08C862.77 23.08 863.213 22.984 863.607 22.792C864.013 22.6107 864.333 22.3333 864.567 21.96C864.802 21.5973 864.919 21.1547 864.919 20.632V18.696L865.191 18.984C864.893 19.5707 864.461 20.0187 863.895 20.328C863.341 20.6373 862.727 20.792 862.055 20.792C861.245 20.792 860.519 20.6053 859.879 20.232C859.239 19.848 858.738 19.3307 858.375 18.68C858.013 18.0187 857.831 17.288 857.831 16.488C857.831 15.6773 858.013 14.9467 858.375 14.296C858.738 13.6453 859.234 13.1333 859.863 12.76C860.503 12.376 861.229 12.184 862.039 12.184C862.711 12.184 863.319 12.3387 863.863 12.648C864.418 12.9467 864.861 13.3627 865.191 13.896L864.967 14.296V12.376H866.423V20.632C866.423 21.3787 866.247 22.0453 865.895 22.632C865.543 23.2187 865.053 23.6773 864.423 24.008C863.805 24.3493 863.095 24.52 862.295 24.52ZM862.183 19.352C862.695 19.352 863.154 19.224 863.559 18.968C863.975 18.712 864.306 18.3707 864.551 17.944C864.797 17.5067 864.919 17.0213 864.919 16.488C864.919 15.9653 864.797 15.4853 864.551 15.048C864.306 14.6107 863.975 14.264 863.559 14.008C863.154 13.752 862.695 13.624 862.183 13.624C861.661 13.624 861.186 13.752 860.759 14.008C860.333 14.264 859.997 14.6107 859.751 15.048C859.517 15.4747 859.399 15.9547 859.399 16.488C859.399 17.0213 859.517 17.5067 859.751 17.944C859.997 18.3707 860.327 18.712 860.743 18.968C861.17 19.224 861.65 19.352 862.183 19.352ZM872.698 21.192C871.866 21.192 871.125 20.9947 870.474 20.6C869.823 20.2053 869.311 19.6667 868.938 18.984C868.565 18.2907 868.378 17.5173 868.378 16.664C868.378 15.8 868.559 15.032 868.922 14.36C869.295 13.688 869.797 13.16 870.426 12.776C871.066 12.3813 871.781 12.184 872.57 12.184C873.21 12.184 873.775 12.3013 874.266 12.536C874.767 12.76 875.189 13.0693 875.53 13.464C875.882 13.848 876.149 14.2907 876.33 14.792C876.522 15.2827 876.618 15.7947 876.618 16.328C876.618 16.4453 876.607 16.5787 876.586 16.728C876.575 16.8667 876.559 17 876.538 17.128H869.466V15.848H875.674L874.97 16.424C875.066 15.8693 875.013 15.3733 874.81 14.936C874.607 14.4987 874.309 14.152 873.914 13.896C873.519 13.64 873.071 13.512 872.57 13.512C872.069 13.512 871.61 13.64 871.194 13.896C870.778 14.152 870.453 14.52 870.218 15C869.994 15.4693 869.903 16.0293 869.946 16.68C869.903 17.3093 869.999 17.864 870.234 18.344C870.479 18.8133 870.821 19.1813 871.258 19.448C871.706 19.704 872.191 19.832 872.714 19.832C873.29 19.832 873.775 19.6987 874.17 19.432C874.565 19.1653 874.885 18.824 875.13 18.408L876.378 19.048C876.207 19.4427 875.941 19.8053 875.578 20.136C875.226 20.456 874.805 20.712 874.314 20.904C873.834 21.096 873.295 21.192 872.698 21.192ZM830.328 41V29.08H834.536C835.325 29.08 836.019 29.2293 836.616 29.528C837.213 29.8267 837.677 30.2533 838.008 30.808C838.349 31.3627 838.52 32.0133 838.52 32.76C838.52 33.6027 838.307 34.3173 837.88 34.904C837.453 35.4907 836.877 35.912 836.152 36.168L838.92 41H837.096L834.184 35.832L835.224 36.44H831.896V41H830.328ZM831.896 35H834.584C835.053 35 835.464 34.9093 835.816 34.728C836.168 34.5467 836.44 34.2853 836.632 33.944C836.835 33.6027 836.936 33.208 836.936 32.76C836.936 32.3013 836.835 31.9067 836.632 31.576C836.44 31.2347 836.168 30.9733 835.816 30.792C835.464 30.6107 835.053 30.52 834.584 30.52H831.896V35ZM844.011 41.192C843.179 41.192 842.437 40.9947 841.787 40.6C841.136 40.2053 840.624 39.6667 840.251 38.984C839.877 38.2907 839.691 37.5173 839.691 36.664C839.691 35.8 839.872 35.032 840.235 34.36C840.608 33.688 841.109 33.16 841.739 32.776C842.379 32.3813 843.093 32.184 843.883 32.184C844.523 32.184 845.088 32.3013 845.579 32.536C846.08 32.76 846.501 33.0693 846.843 33.464C847.195 33.848 847.461 34.2907 847.643 34.792C847.835 35.2827 847.931 35.7947 847.931 36.328C847.931 36.4453 847.92 36.5787 847.899 36.728C847.888 36.8667 847.872 37 847.851 37.128H840.779V35.848H846.987L846.283 36.424C846.379 35.8693 846.325 35.3733 846.123 34.936C845.92 34.4987 845.621 34.152 845.227 33.896C844.832 33.64 844.384 33.512 843.883 33.512C843.381 33.512 842.923 33.64 842.507 33.896C842.091 34.152 841.765 34.52 841.531 35C841.307 35.4693 841.216 36.0293 841.259 36.68C841.216 37.3093 841.312 37.864 841.547 38.344C841.792 38.8133 842.133 39.1813 842.571 39.448C843.019 39.704 843.504 39.832 844.027 39.832C844.603 39.832 845.088 39.6987 845.483 39.432C845.877 39.1653 846.197 38.824 846.443 38.408L847.691 39.048C847.52 39.4427 847.253 39.8053 846.891 40.136C846.539 40.456 846.117 40.712 845.627 40.904C845.147 41.096 844.608 41.192 844.011 41.192ZM853.871 41.192C853.028 41.192 852.276 40.9947 851.615 40.6C850.964 40.2053 850.452 39.6667 850.079 38.984C849.705 38.3013 849.519 37.5333 849.519 36.68C849.519 35.816 849.705 35.048 850.079 34.376C850.452 33.704 850.964 33.1707 851.615 32.776C852.276 32.3813 853.028 32.184 853.871 32.184C854.436 32.184 854.964 32.2853 855.455 32.488C855.945 32.6907 856.377 32.9627 856.751 33.304C857.124 33.6453 857.396 34.0453 857.567 34.504L856.239 35.144C856.036 34.696 855.727 34.3333 855.311 34.056C854.895 33.768 854.415 33.624 853.871 33.624C853.348 33.624 852.873 33.7573 852.447 34.024C852.031 34.2907 851.7 34.6533 851.455 35.112C851.209 35.5707 851.087 36.0987 851.087 36.696C851.087 37.272 851.209 37.7947 851.455 38.264C851.7 38.7227 852.031 39.0853 852.447 39.352C852.873 39.6187 853.348 39.752 853.871 39.752C854.415 39.752 854.895 39.6133 855.311 39.336C855.727 39.048 856.036 38.6693 856.239 38.2L857.567 38.872C857.396 39.32 857.124 39.72 856.751 40.072C856.377 40.4133 855.945 40.6853 855.455 40.888C854.964 41.0907 854.436 41.192 853.871 41.192ZM863.607 41.192C862.775 41.192 862.023 41 861.351 40.616C860.679 40.2213 860.146 39.6827 859.751 39C859.357 38.3173 859.159 37.544 859.159 36.68C859.159 35.816 859.351 35.048 859.735 34.376C860.13 33.704 860.663 33.1707 861.335 32.776C862.007 32.3813 862.765 32.184 863.607 32.184C864.439 32.184 865.191 32.3813 865.863 32.776C866.535 33.16 867.063 33.688 867.447 34.36C867.842 35.032 868.039 35.8053 868.039 36.68C868.039 37.5547 867.837 38.3333 867.431 39.016C867.026 39.688 866.487 40.2213 865.815 40.616C865.154 41 864.418 41.192 863.607 41.192ZM863.607 39.752C864.141 39.752 864.621 39.6187 865.047 39.352C865.485 39.0853 865.826 38.7173 866.071 38.248C866.327 37.7787 866.455 37.256 866.455 36.68C866.455 36.0933 866.327 35.576 866.071 35.128C865.826 34.6693 865.485 34.3067 865.047 34.04C864.621 33.7627 864.141 33.624 863.607 33.624C863.063 33.624 862.573 33.7627 862.135 34.04C861.709 34.3067 861.367 34.6693 861.111 35.128C860.855 35.576 860.727 36.0933 860.727 36.68C860.727 37.256 860.855 37.7787 861.111 38.248C861.367 38.7173 861.709 39.0853 862.135 39.352C862.573 39.6187 863.063 39.752 863.607 39.752ZM874.092 44.52C873.484 44.52 872.919 44.424 872.396 44.232C871.884 44.04 871.441 43.7733 871.068 43.432C870.705 43.1013 870.428 42.712 870.236 42.264L871.628 41.624C871.777 42.0293 872.06 42.3707 872.476 42.648C872.903 42.936 873.436 43.08 874.076 43.08C874.567 43.08 875.009 42.984 875.404 42.792C875.809 42.6107 876.129 42.3333 876.364 41.96C876.599 41.5973 876.716 41.1547 876.716 40.632V38.696L876.988 38.984C876.689 39.5707 876.257 40.0187 875.692 40.328C875.137 40.6373 874.524 40.792 873.852 40.792C873.041 40.792 872.316 40.6053 871.676 40.232C871.036 39.848 870.535 39.3307 870.172 38.68C869.809 38.0187 869.628 37.288 869.628 36.488C869.628 35.6773 869.809 34.9467 870.172 34.296C870.535 33.6453 871.031 33.1333 871.66 32.76C872.3 32.376 873.025 32.184 873.836 32.184C874.508 32.184 875.116 32.3387 875.66 32.648C876.215 32.9467 876.657 33.3627 876.988 33.896L876.764 34.296V32.376H878.22V40.632C878.22 41.3787 878.044 42.0453 877.692 42.632C877.34 43.2187 876.849 43.6773 876.22 44.008C875.601 44.3493 874.892 44.52 874.092 44.52ZM873.98 39.352C874.492 39.352 874.951 39.224 875.356 38.968C875.772 38.712 876.103 38.3707 876.348 37.944C876.593 37.5067 876.716 37.0213 876.716 36.488C876.716 35.9653 876.593 35.4853 876.348 35.048C876.103 34.6107 875.772 34.264 875.356 34.008C874.951 33.752 874.492 33.624 873.98 33.624C873.457 33.624 872.983 33.752 872.556 34.008C872.129 34.264 871.793 34.6107 871.548 35.048C871.313 35.4747 871.196 35.9547 871.196 36.488C871.196 37.0213 871.313 37.5067 871.548 37.944C871.793 38.3707 872.124 38.712 872.54 38.968C872.967 39.224 873.447 39.352 873.98 39.352ZM880.527 41V32.376H881.983V34.056L881.743 33.912C881.956 33.368 882.298 32.9467 882.767 32.648C883.247 32.3387 883.807 32.184 884.447 32.184C885.066 32.184 885.615 32.3227 886.095 32.6C886.586 32.8773 886.97 33.2613 887.247 33.752C887.535 34.2427 887.679 34.7973 887.679 35.416V41H886.175V35.896C886.175 35.416 886.09 35.0107 885.919 34.68C885.748 34.3493 885.503 34.0933 885.183 33.912C884.874 33.72 884.516 33.624 884.111 33.624C883.706 33.624 883.343 33.72 883.023 33.912C882.714 34.0933 882.468 34.3547 882.287 34.696C882.106 35.0267 882.015 35.4267 882.015 35.896V41H880.527ZM889.808 41V32.376H891.296V41H889.808ZM889.808 31V29.08H891.296V31H889.808ZM897.109 41.096C896.266 41.096 895.616 40.856 895.157 40.376C894.709 39.896 894.485 39.2187 894.485 38.344V33.8H892.917V32.376H893.237C893.621 32.376 893.925 32.2587 894.149 32.024C894.373 31.7893 894.485 31.48 894.485 31.096V30.392H895.973V32.376H897.909V33.8H895.973V38.296C895.973 38.584 896.016 38.8347 896.101 39.048C896.197 39.2613 896.352 39.432 896.565 39.56C896.778 39.6773 897.061 39.736 897.413 39.736C897.488 39.736 897.578 39.7307 897.685 39.72C897.802 39.7093 897.909 39.6987 898.005 39.688V41C897.866 41.032 897.712 41.0533 897.541 41.064C897.37 41.0853 897.226 41.096 897.109 41.096ZM899.949 41V32.376H901.437V41H899.949ZM899.949 31V29.08H901.437V31H899.949ZM907.842 41.192C907.01 41.192 906.258 41 905.586 40.616C904.914 40.2213 904.38 39.6827 903.986 39C903.591 38.3173 903.394 37.544 903.394 36.68C903.394 35.816 903.586 35.048 903.97 34.376C904.364 33.704 904.898 33.1707 905.57 32.776C906.242 32.3813 906.999 32.184 907.842 32.184C908.674 32.184 909.426 32.3813 910.098 32.776C910.77 33.16 911.298 33.688 911.682 34.36C912.076 35.032 912.274 35.8053 912.274 36.68C912.274 37.5547 912.071 38.3333 911.666 39.016C911.26 39.688 910.722 40.2213 910.05 40.616C909.388 41 908.652 41.192 907.842 41.192ZM907.842 39.752C908.375 39.752 908.855 39.6187 909.282 39.352C909.719 39.0853 910.06 38.7173 910.306 38.248C910.562 37.7787 910.69 37.256 910.69 36.68C910.69 36.0933 910.562 35.576 910.306 35.128C910.06 34.6693 909.719 34.3067 909.282 34.04C908.855 33.7627 908.375 33.624 907.842 33.624C907.298 33.624 906.807 33.7627 906.37 34.04C905.943 34.3067 905.602 34.6693 905.346 35.128C905.09 35.576 904.962 36.0933 904.962 36.68C904.962 37.256 905.09 37.7787 905.346 38.248C905.602 38.7173 905.943 39.0853 906.37 39.352C906.807 39.6187 907.298 39.752 907.842 39.752ZM914.215 41V32.376H915.671V34.056L915.431 33.912C915.644 33.368 915.985 32.9467 916.455 32.648C916.935 32.3387 917.495 32.184 918.135 32.184C918.753 32.184 919.303 32.3227 919.783 32.6C920.273 32.8773 920.657 33.2613 920.935 33.752C921.223 34.2427 921.367 34.7973 921.367 35.416V41H919.863V35.896C919.863 35.416 919.777 35.0107 919.607 34.68C919.436 34.3493 919.191 34.0933 918.871 33.912C918.561 33.72 918.204 33.624 917.799 33.624C917.393 33.624 917.031 33.72 916.711 33.912C916.401 34.0933 916.156 34.3547 915.975 34.696C915.793 35.0267 915.703 35.4267 915.703 35.896V41H914.215Z" fill="white"/>
<path d="M1014.33 21V9.08H1015.9V21H1014.33ZM1018.37 21V12.376H1019.83V14.056L1019.59 13.912C1019.8 13.368 1020.14 12.9467 1020.61 12.648C1021.09 12.3387 1021.65 12.184 1022.29 12.184C1022.91 12.184 1023.46 12.3227 1023.94 12.6C1024.43 12.8773 1024.81 13.2613 1025.09 13.752C1025.38 14.2427 1025.52 14.7973 1025.52 15.416V21H1024.02V15.896C1024.02 15.416 1023.93 15.0107 1023.76 14.68C1023.59 14.3493 1023.35 14.0933 1023.03 13.912C1022.72 13.72 1022.36 13.624 1021.95 13.624C1021.55 13.624 1021.19 13.72 1020.87 13.912C1020.56 14.0933 1020.31 14.3547 1020.13 14.696C1019.95 15.0267 1019.86 15.4267 1019.86 15.896V21H1018.37ZM1031.57 21.192C1030.76 21.192 1030.03 20.9947 1029.38 20.6C1028.74 20.2053 1028.23 19.6667 1027.86 18.984C1027.49 18.3013 1027.3 17.5387 1027.3 16.696C1027.3 15.832 1027.49 15.064 1027.86 14.392C1028.23 13.7093 1028.74 13.1707 1029.38 12.776C1030.03 12.3813 1030.76 12.184 1031.57 12.184C1032.29 12.184 1032.92 12.3387 1033.48 12.648C1034.03 12.9467 1034.47 13.352 1034.79 13.864L1034.55 14.232V8.888H1036.05V21H1034.6V19.16L1034.79 19.416C1034.49 19.9813 1034.05 20.4187 1033.48 20.728C1032.91 21.0373 1032.28 21.192 1031.57 21.192ZM1031.7 19.752C1032.24 19.752 1032.73 19.6187 1033.16 19.352C1033.58 19.0853 1033.92 18.7227 1034.16 18.264C1034.42 17.7947 1034.55 17.272 1034.55 16.696C1034.55 16.1093 1034.42 15.5867 1034.16 15.128C1033.92 14.6587 1033.58 14.2907 1033.16 14.024C1032.73 13.7573 1032.24 13.624 1031.7 13.624C1031.17 13.624 1030.68 13.7627 1030.24 14.04C1029.82 14.3067 1029.48 14.6693 1029.24 15.128C1028.99 15.576 1028.87 16.0987 1028.87 16.696C1028.87 17.272 1028.99 17.7947 1029.24 18.264C1029.48 18.7227 1029.82 19.0853 1030.24 19.352C1030.67 19.6187 1031.16 19.752 1031.7 19.752ZM1041.41 21.192C1040.79 21.192 1040.23 21.048 1039.73 20.76C1039.24 20.472 1038.86 20.072 1038.58 19.56C1038.31 19.0373 1038.18 18.44 1038.18 17.768V12.376H1039.67V17.608C1039.67 18.0347 1039.75 18.408 1039.92 18.728C1040.1 19.048 1040.35 19.2987 1040.66 19.48C1040.98 19.6613 1041.34 19.752 1041.75 19.752C1042.15 19.752 1042.51 19.6613 1042.82 19.48C1043.14 19.2987 1043.38 19.0373 1043.56 18.696C1043.74 18.3547 1043.83 17.9493 1043.83 17.48V12.376H1045.33V21H1043.88V19.32L1044.12 19.464C1043.91 20.008 1043.57 20.4347 1043.08 20.744C1042.6 21.0427 1042.04 21.192 1041.41 21.192ZM1050.72 21.192C1049.86 21.192 1049.11 20.9787 1048.47 20.552C1047.83 20.1253 1047.38 19.5493 1047.11 18.824L1048.29 18.248C1048.54 18.76 1048.87 19.1653 1049.3 19.464C1049.73 19.7627 1050.2 19.912 1050.72 19.912C1051.19 19.912 1051.58 19.8 1051.89 19.576C1052.2 19.352 1052.36 19.0587 1052.36 18.696C1052.36 18.44 1052.28 18.2373 1052.13 18.088C1051.99 17.928 1051.82 17.8053 1051.62 17.72C1051.42 17.624 1051.23 17.5547 1051.06 17.512L1049.76 17.144C1048.99 16.92 1048.42 16.6 1048.05 16.184C1047.7 15.768 1047.52 15.2827 1047.52 14.728C1047.52 14.216 1047.65 13.7733 1047.91 13.4C1048.18 13.016 1048.53 12.7173 1048.98 12.504C1049.44 12.2907 1049.95 12.184 1050.52 12.184C1051.27 12.184 1051.95 12.376 1052.55 12.76C1053.16 13.144 1053.59 13.6827 1053.84 14.376L1052.63 14.936C1052.44 14.488 1052.15 14.136 1051.76 13.88C1051.38 13.6133 1050.95 13.48 1050.47 13.48C1050.03 13.48 1049.68 13.592 1049.43 13.816C1049.17 14.0293 1049.04 14.3013 1049.04 14.632C1049.04 14.8773 1049.11 15.08 1049.24 15.24C1049.36 15.3893 1049.52 15.5067 1049.7 15.592C1049.88 15.6667 1050.06 15.7307 1050.23 15.784L1051.64 16.2C1052.34 16.4027 1052.88 16.7173 1053.27 17.144C1053.66 17.5707 1053.86 18.0827 1053.86 18.68C1053.86 19.16 1053.73 19.592 1053.46 19.976C1053.19 20.36 1052.83 20.6587 1052.36 20.872C1051.89 21.0853 1051.34 21.192 1050.72 21.192ZM1059.31 21.096C1058.47 21.096 1057.82 20.856 1057.36 20.376C1056.91 19.896 1056.69 19.2187 1056.69 18.344V13.8H1055.12V12.376H1055.44C1055.82 12.376 1056.13 12.2587 1056.35 12.024C1056.58 11.7893 1056.69 11.48 1056.69 11.096V10.392H1058.18V12.376H1060.11V13.8H1058.18V18.296C1058.18 18.584 1058.22 18.8347 1058.3 19.048C1058.4 19.2613 1058.55 19.432 1058.77 19.56C1058.98 19.6773 1059.26 19.736 1059.62 19.736C1059.69 19.736 1059.78 19.7307 1059.89 19.72C1060.01 19.7093 1060.11 19.6987 1060.21 19.688V21C1060.07 21.032 1059.91 21.0533 1059.74 21.064C1059.57 21.0853 1059.43 21.096 1059.31 21.096ZM1062.15 21V12.376H1063.61V13.96L1063.45 13.736C1063.65 13.2453 1063.96 12.8827 1064.38 12.648C1064.79 12.4027 1065.3 12.28 1065.9 12.28H1066.42V13.688H1065.67C1065.06 13.688 1064.57 13.88 1064.2 14.264C1063.83 14.6373 1063.64 15.1707 1063.64 15.864V21H1062.15ZM1067.75 21V12.376H1069.23V21H1067.75ZM1067.75 11V9.08H1069.23V11H1067.75ZM1074.07 21.192C1073.51 21.192 1073 21.0907 1072.57 20.888C1072.14 20.6747 1071.8 20.3867 1071.56 20.024C1071.31 19.6507 1071.19 19.224 1071.19 18.744C1071.19 18.2853 1071.29 17.8747 1071.48 17.512C1071.68 17.1387 1071.99 16.824 1072.41 16.568C1072.83 16.312 1073.37 16.1307 1074.01 16.024L1077.21 15.496V16.744L1074.34 17.224C1073.79 17.32 1073.38 17.496 1073.13 17.752C1072.88 18.008 1072.76 18.3227 1072.76 18.696C1072.76 19.048 1072.9 19.3413 1073.17 19.576C1073.46 19.8107 1073.82 19.928 1074.25 19.928C1074.79 19.928 1075.26 19.816 1075.65 19.592C1076.06 19.3573 1076.37 19.0427 1076.6 18.648C1076.83 18.2533 1076.95 17.816 1076.95 17.336V15.144C1076.95 14.6747 1076.77 14.296 1076.42 14.008C1076.08 13.7093 1075.63 13.56 1075.06 13.56C1074.57 13.56 1074.13 13.688 1073.75 13.944C1073.38 14.1893 1073.1 14.52 1072.92 14.936L1071.62 14.264C1071.78 13.8693 1072.04 13.5173 1072.39 13.208C1072.74 12.888 1073.15 12.6373 1073.62 12.456C1074.09 12.2747 1074.58 12.184 1075.09 12.184C1075.76 12.184 1076.34 12.312 1076.84 12.568C1077.34 12.8133 1077.73 13.16 1078.01 13.608C1078.29 14.0453 1078.44 14.5573 1078.44 15.144V21H1076.98V19.368L1077.25 19.464C1077.07 19.8053 1076.83 20.104 1076.52 20.36C1076.21 20.616 1075.85 20.8187 1075.43 20.968C1075.01 21.1173 1074.56 21.192 1074.07 21.192ZM1080.75 21V8.888H1082.23V21H1080.75ZM1013.18 41L1017.45 29.08H1019.3L1023.58 41H1021.9L1020.92 38.2H1015.83L1014.86 41H1013.18ZM1016.33 36.76H1020.42L1018.15 30.216H1018.6L1016.33 36.76ZM1027.8 41.192C1027.18 41.192 1026.62 41.048 1026.12 40.76C1025.63 40.472 1025.25 40.072 1024.97 39.56C1024.7 39.0373 1024.57 38.44 1024.57 37.768V32.376H1026.06V37.608C1026.06 38.0347 1026.14 38.408 1026.31 38.728C1026.5 39.048 1026.74 39.2987 1027.05 39.48C1027.37 39.6613 1027.73 39.752 1028.14 39.752C1028.54 39.752 1028.9 39.6613 1029.21 39.48C1029.53 39.2987 1029.78 39.0373 1029.95 38.696C1030.13 38.3547 1030.22 37.9493 1030.22 37.48V32.376H1031.72V41H1030.27V39.32L1030.51 39.464C1030.3 40.008 1029.96 40.4347 1029.47 40.744C1028.99 41.0427 1028.43 41.192 1027.8 41.192ZM1037.53 41.096C1036.69 41.096 1036.04 40.856 1035.58 40.376C1035.13 39.896 1034.91 39.2187 1034.91 38.344V33.8H1033.34V32.376H1033.66C1034.04 32.376 1034.35 32.2587 1034.57 32.024C1034.8 31.7893 1034.91 31.48 1034.91 31.096V30.392H1036.4V32.376H1038.33V33.8H1036.4V38.296C1036.4 38.584 1036.44 38.8347 1036.52 39.048C1036.62 39.2613 1036.77 39.432 1036.99 39.56C1037.2 39.6773 1037.48 39.736 1037.84 39.736C1037.91 39.736 1038 39.7307 1038.11 39.72C1038.22 39.7093 1038.33 39.6987 1038.43 39.688V41C1038.29 41.032 1038.13 41.0533 1037.96 41.064C1037.79 41.0853 1037.65 41.096 1037.53 41.096ZM1044.23 41.192C1043.4 41.192 1042.65 41 1041.98 40.616C1041.3 40.2213 1040.77 39.6827 1040.38 39C1039.98 38.3173 1039.78 37.544 1039.78 36.68C1039.78 35.816 1039.98 35.048 1040.36 34.376C1040.76 33.704 1041.29 33.1707 1041.96 32.776C1042.63 32.3813 1043.39 32.184 1044.23 32.184C1045.06 32.184 1045.82 32.3813 1046.49 32.776C1047.16 33.16 1047.69 33.688 1048.07 34.36C1048.47 35.032 1048.66 35.8053 1048.66 36.68C1048.66 37.5547 1048.46 38.3333 1048.06 39.016C1047.65 39.688 1047.11 40.2213 1046.44 40.616C1045.78 41 1045.04 41.192 1044.23 41.192ZM1044.23 39.752C1044.77 39.752 1045.25 39.6187 1045.67 39.352C1046.11 39.0853 1046.45 38.7173 1046.7 38.248C1046.95 37.7787 1047.08 37.256 1047.08 36.68C1047.08 36.0933 1046.95 35.576 1046.7 35.128C1046.45 34.6693 1046.11 34.3067 1045.67 34.04C1045.25 33.7627 1044.77 33.624 1044.23 33.624C1043.69 33.624 1043.2 33.7627 1042.76 34.04C1042.33 34.3067 1041.99 34.6693 1041.74 35.128C1041.48 35.576 1041.35 36.0933 1041.35 36.68C1041.35 37.256 1041.48 37.7787 1041.74 38.248C1041.99 38.7173 1042.33 39.0853 1042.76 39.352C1043.2 39.6187 1043.69 39.752 1044.23 39.752ZM1050.61 41V32.376H1052.06V34.136L1051.85 33.864C1052.07 33.32 1052.41 32.904 1052.88 32.616C1053.35 32.328 1053.87 32.184 1054.46 32.184C1055.13 32.184 1055.74 32.3707 1056.27 32.744C1056.81 33.1173 1057.19 33.608 1057.39 34.216L1056.97 34.232C1057.2 33.56 1057.58 33.0533 1058.11 32.712C1058.64 32.36 1059.23 32.184 1059.89 32.184C1060.48 32.184 1061.02 32.3227 1061.5 32.6C1061.99 32.8773 1062.38 33.2613 1062.67 33.752C1062.96 34.2427 1063.1 34.7973 1063.1 35.416V41H1061.6V35.896C1061.6 35.416 1061.51 35.0107 1061.34 34.68C1061.17 34.3493 1060.94 34.0933 1060.64 33.912C1060.35 33.72 1060.01 33.624 1059.61 33.624C1059.23 33.624 1058.88 33.72 1058.57 33.912C1058.27 34.0933 1058.03 34.3547 1057.85 34.696C1057.68 35.0267 1057.6 35.4267 1057.6 35.896V41H1056.09V35.896C1056.09 35.416 1056.01 35.0107 1055.84 34.68C1055.67 34.3493 1055.43 34.0933 1055.13 33.912C1054.85 33.72 1054.5 33.624 1054.11 33.624C1053.73 33.624 1053.38 33.72 1053.07 33.912C1052.77 34.0933 1052.53 34.3547 1052.35 34.696C1052.18 35.0267 1052.09 35.4267 1052.09 35.896V41H1050.61ZM1067.74 41.192C1067.18 41.192 1066.68 41.0907 1066.24 40.888C1065.81 40.6747 1065.48 40.3867 1065.23 40.024C1064.99 39.6507 1064.86 39.224 1064.86 38.744C1064.86 38.2853 1064.96 37.8747 1065.15 37.512C1065.35 37.1387 1065.66 36.824 1066.08 36.568C1066.51 36.312 1067.04 36.1307 1067.68 36.024L1070.88 35.496V36.744L1068.01 37.224C1067.46 37.32 1067.05 37.496 1066.8 37.752C1066.55 38.008 1066.43 38.3227 1066.43 38.696C1066.43 39.048 1066.57 39.3413 1066.85 39.576C1067.13 39.8107 1067.49 39.928 1067.92 39.928C1068.46 39.928 1068.93 39.816 1069.33 39.592C1069.73 39.3573 1070.05 39.0427 1070.27 38.648C1070.51 38.2533 1070.62 37.816 1070.62 37.336V35.144C1070.62 34.6747 1070.45 34.296 1070.09 34.008C1069.75 33.7093 1069.3 33.56 1068.73 33.56C1068.24 33.56 1067.81 33.688 1067.42 33.944C1067.05 34.1893 1066.77 34.52 1066.59 34.936L1065.29 34.264C1065.45 33.8693 1065.71 33.5173 1066.06 33.208C1066.41 32.888 1066.83 32.6373 1067.29 32.456C1067.76 32.2747 1068.25 32.184 1068.77 32.184C1069.43 32.184 1070.01 32.312 1070.51 32.568C1071.01 32.8133 1071.4 33.16 1071.68 33.608C1071.97 34.0453 1072.11 34.5573 1072.11 35.144V41H1070.65V39.368L1070.93 39.464C1070.75 39.8053 1070.5 40.104 1070.19 40.36C1069.88 40.616 1069.52 40.8187 1069.1 40.968C1068.69 41.1173 1068.23 41.192 1067.74 41.192ZM1077.77 41.096C1076.92 41.096 1076.27 40.856 1075.81 40.376C1075.37 39.896 1075.14 39.2187 1075.14 38.344V33.8H1073.57V32.376H1073.89C1074.28 32.376 1074.58 32.2587 1074.81 32.024C1075.03 31.7893 1075.14 31.48 1075.14 31.096V30.392H1076.63V32.376H1078.57V33.8H1076.63V38.296C1076.63 38.584 1076.67 38.8347 1076.76 39.048C1076.85 39.2613 1077.01 39.432 1077.22 39.56C1077.43 39.6773 1077.72 39.736 1078.07 39.736C1078.14 39.736 1078.23 39.7307 1078.34 39.72C1078.46 39.7093 1078.57 39.6987 1078.66 39.688V41C1078.52 41.032 1078.37 41.0533 1078.2 41.064C1078.03 41.0853 1077.88 41.096 1077.77 41.096ZM1080.61 41V32.376H1082.09V41H1080.61ZM1080.61 31V29.08H1082.09V31H1080.61ZM1088.5 41.192C1087.67 41.192 1086.91 41 1086.24 40.616C1085.57 40.2213 1085.04 39.6827 1084.64 39C1084.25 38.3173 1084.05 37.544 1084.05 36.68C1084.05 35.816 1084.24 35.048 1084.63 34.376C1085.02 33.704 1085.55 33.1707 1086.23 32.776C1086.9 32.3813 1087.66 32.184 1088.5 32.184C1089.33 32.184 1090.08 32.3813 1090.75 32.776C1091.43 33.16 1091.95 33.688 1092.34 34.36C1092.73 35.032 1092.93 35.8053 1092.93 36.68C1092.93 37.5547 1092.73 38.3333 1092.32 39.016C1091.92 39.688 1091.38 40.2213 1090.71 40.616C1090.04 41 1089.31 41.192 1088.5 41.192ZM1088.5 39.752C1089.03 39.752 1089.51 39.6187 1089.94 39.352C1090.38 39.0853 1090.72 38.7173 1090.96 38.248C1091.22 37.7787 1091.35 37.256 1091.35 36.68C1091.35 36.0933 1091.22 35.576 1090.96 35.128C1090.72 34.6693 1090.38 34.3067 1089.94 34.04C1089.51 33.7627 1089.03 33.624 1088.5 33.624C1087.95 33.624 1087.46 33.7627 1087.03 34.04C1086.6 34.3067 1086.26 34.6693 1086 35.128C1085.75 35.576 1085.62 36.0933 1085.62 36.68C1085.62 37.256 1085.75 37.7787 1086 38.248C1086.26 38.7173 1086.6 39.0853 1087.03 39.352C1087.46 39.6187 1087.95 39.752 1088.5 39.752ZM1094.87 41V32.376H1096.33V34.056L1096.09 33.912C1096.3 33.368 1096.64 32.9467 1097.11 32.648C1097.59 32.3387 1098.15 32.184 1098.79 32.184C1099.41 32.184 1099.96 32.3227 1100.44 32.6C1100.93 32.8773 1101.31 33.2613 1101.59 33.752C1101.88 34.2427 1102.02 34.7973 1102.02 35.416V41H1100.52V35.896C1100.52 35.416 1100.43 35.0107 1100.26 34.68C1100.09 34.3493 1099.85 34.0933 1099.53 33.912C1099.22 33.72 1098.86 33.624 1098.45 33.624C1098.05 33.624 1097.69 33.72 1097.37 33.912C1097.06 34.0933 1096.81 34.3547 1096.63 34.696C1096.45 35.0267 1096.36 35.4267 1096.36 35.896V41H1094.87Z" fill="white"/>
<rect x="955.5" y="0.5" width="47" height="47" rx="7.5" stroke="url(#paint6_linear_402_1170)"/>
<path d="M975.112 31.7778H972.778C972.366 31.7778 971.97 31.6139 971.678 31.3221C971.387 31.0304 971.223 30.6348 971.223 30.2222V24.7778C971.223 24.3652 971.387 23.9695 971.678 23.6778C971.97 23.3861 972.366 23.2222 972.778 23.2222H975.112M980.556 21.6666V18.5555C980.556 17.9367 980.31 17.3432 979.873 16.9056C979.435 16.468 978.841 16.2222 978.223 16.2222L975.112 23.2222V31.7778H983.885C984.26 31.782 984.624 31.6505 984.91 31.4075C985.196 31.1646 985.384 30.8265 985.44 30.4555L986.514 23.4555C986.548 23.2326 986.533 23.005 986.47 22.7884C986.407 22.5718 986.298 22.3715 986.15 22.2014C986.002 22.0312 985.818 21.8953 985.613 21.8029C985.407 21.7106 985.184 21.6641 984.958 21.6666H980.556Z" stroke="#C2B7FF" stroke-width="1.5" stroke-linecap="round" stroke-linejoin="round"/>
<defs>
<linearGradient id="paint0_linear_402_1170" x1="0" y1="48" x2="48" y2="0" gradientUnits="userSpaceOnUse">
<stop stop-color="white"/>
<stop offset="1" stop-color="white" stop-opacity="0.2"/>
</linearGradient>
<linearGradient id="paint1_linear_402_1170" x1="178" y1="48" x2="226" y2="0" gradientUnits="userSpaceOnUse">
<stop stop-color="white"/>
<stop offset="1" stop-color="white" stop-opacity="0.2"/>
</linearGradient>
<linearGradient id="paint2_linear_402_1170" x1="329" y1="48" x2="377" y2="0" gradientUnits="userSpaceOnUse">
<stop stop-color="white"/>
<stop offset="1" stop-color="white" stop-opacity="0.2"/>
</linearGradient>
<linearGradient id="paint3_linear_402_1170" x1="495" y1="48" x2="543" y2="0" gradientUnits="userSpaceOnUse">
<stop stop-color="white"/>
<stop offset="1" stop-color="white" stop-opacity="0.2"/>
</linearGradient>
<linearGradient id="paint4_linear_402_1170" x1="650" y1="48" x2="698" y2="0" gradientUnits="userSpaceOnUse">
<stop stop-color="white"/>
<stop offset="1" stop-color="white" stop-opacity="0.2"/>
</linearGradient>
<linearGradient id="paint5_linear_402_1170" x1="771" y1="48" x2="819" y2="0" gradientUnits="userSpaceOnUse">
<stop stop-color="white"/>
<stop offset="1" stop-color="white" stop-opacity="0.2"/>
</linearGradient>
<linearGradient id="paint6_linear_402_1170" x1="955" y1="48" x2="1003" y2="0" gradientUnits="userSpaceOnUse">
<stop stop-color="white"/>
<stop offset="1" stop-color="white" stop-opacity="0.2"/>
</linearGradient>
</defs>
</svg>
