<svg width="219" height="83" viewBox="0 0 219 83" fill="none" xmlns="http://www.w3.org/2000/svg">
<path d="M42.0252 77.3725C61.6317 77.3725 77.5259 61.4783 77.5259 41.8717C77.5259 22.2652 61.6317 6.37097 42.0252 6.37097C22.4186 6.37097 6.52441 22.2652 6.52441 41.8717C6.52441 61.4783 22.4186 77.3725 42.0252 77.3725Z" stroke="white" stroke-miterlimit="10"/>
<path d="M57.6821 67.4125C58.4664 66.9549 58.7778 67.0328 59.2411 67.8265C59.7045 68.6203 59.6209 68.9298 58.8404 69.3893C58.06 69.8489 57.7637 69.7957 57.3764 69.1216L57.9157 68.8045C58.134 69.1843 58.2024 69.2014 58.5955 68.9716C58.9886 68.7418 59.0019 68.6564 58.7018 68.1436C58.4018 67.6309 58.322 67.5986 57.927 67.8303C57.5321 68.062 57.515 68.1284 57.7372 68.5101L57.1979 68.8273C56.8029 68.155 56.8978 67.8702 57.6821 67.4125Z" fill="white"/>
<path d="M56.1666 70.7869C55.3311 71.1762 55.0273 71.0661 54.6475 70.2343C54.2677 69.4026 54.3759 69.095 55.2172 68.7152C56.0584 68.3354 56.3565 68.436 56.7458 69.2678C57.1351 70.0995 57.0041 70.3995 56.1666 70.7869ZM56.1666 69.526C55.916 68.9867 55.8419 68.9563 55.4071 69.1462C54.9722 69.3361 54.957 69.4273 55.2172 69.9685C55.4773 70.5097 55.5419 70.5382 55.9767 70.3483C56.4116 70.1584 56.4135 70.071 56.1628 69.526H56.1666Z" fill="white"/>
<path d="M54.3727 71.537L53.2903 71.9168C52.5307 72.1865 52.2592 72.046 51.961 71.2066C51.6629 70.3673 51.7825 70.0919 52.5478 69.8223L53.6302 69.4425L54.3727 71.537ZM53.4403 70.6882L53.239 70.1185L52.7795 70.2799C52.3997 70.4148 52.375 70.4869 52.5535 70.9939C52.732 71.501 52.7966 71.5427 53.1783 71.4079L53.6378 71.2465L53.4403 70.6882Z" fill="white"/>
<path d="M51.6152 72.4561L51.0455 72.6175L50.4492 70.4755L51.0189 70.316L51.6152 72.4561Z" fill="white"/>
<path d="M48.7516 70.8401C49.6422 70.6502 49.9118 70.8401 50.096 71.7326C50.2802 72.6251 50.096 72.9004 49.213 73.0827C48.33 73.265 48.0641 73.1207 47.9122 72.3592L48.5275 72.232C48.6091 72.6631 48.6699 72.7011 49.1162 72.6118C49.5624 72.5226 49.6023 72.4447 49.4827 71.8617C49.363 71.2787 49.2928 71.2256 48.8503 71.3167C48.4079 71.4079 48.3623 71.4667 48.4572 71.9016L47.8439 72.0269C47.6806 71.2598 47.8629 71.0205 48.7516 70.8401Z" fill="white"/>
<path d="M45.5238 73.6012L45.4649 73.0904L46.6821 72.9499L46.6422 72.6099L45.539 72.7372L45.4839 72.2567L46.5872 72.1295L46.5454 71.7611L45.3225 71.9035L45.2617 71.3927L47.0809 71.1819L47.3354 73.3904L45.5238 73.6012Z" fill="white"/>
<path d="M43.383 73.7189L42.2437 73.6999C41.4309 73.6866 41.2334 73.4607 41.2467 72.572C41.26 71.6832 41.467 71.4649 42.2797 71.4782L43.4191 71.4972L43.383 73.7189ZM42.8133 72.5985V72.0004H42.3253C41.9208 72.0004 41.8753 72.0516 41.8658 72.5909C41.8563 73.1302 41.9018 73.1891 42.3063 73.1967H42.7943L42.8133 72.5985Z" fill="white"/>
<path d="M38.6357 73.4531L38.687 72.9422L39.9061 73.0638L39.9403 72.7239L38.8351 72.6137L38.8826 72.1314L39.9878 72.2434L40.0258 71.875L38.8009 71.7516L38.8522 71.2408L40.6714 71.4307L40.4473 73.6335L38.6357 73.4531Z" fill="white"/>
<path d="M36.783 70.8819L37.7116 71.0585L37.9566 73.3657L37.3128 73.2442L37.1229 71.5351H37.1058L36.2665 73.0543L35.6475 72.9385L36.783 70.8819Z" fill="white"/>
<path d="M33.2148 72.2624L33.3535 71.7687L34.5327 72.101L34.6258 71.7725L33.5567 71.4706L33.6877 71.0034L34.7511 71.3054L34.8517 70.9503L33.6668 70.616L33.8073 70.1223L35.5657 70.6179L34.9638 72.7562L33.2148 72.2624Z" fill="white"/>
<path d="M31.902 71.8048L32.4926 70.2021L31.4785 69.8223L31.6551 69.3419L33.2312 69.9229L32.4622 72.0118L31.902 71.8048Z" fill="white"/>
<path d="M29.244 70.7433C28.4085 70.3502 28.2945 70.0464 28.6857 69.2241C29.0769 68.4019 29.3807 68.286 30.2163 68.6772C31.0518 69.0684 31.1657 69.3722 30.7746 70.1964C30.3834 71.0205 30.0871 71.1345 29.244 70.7433ZM30.2068 69.9286C30.4593 69.3912 30.4422 69.3096 30.0169 69.1083C29.5915 68.907 29.5118 68.9431 29.2573 69.4881C29.0028 70.0331 29.0237 70.1071 29.4472 70.3103C29.8707 70.5135 29.9618 70.4679 30.2144 69.9286H30.2068Z" fill="white"/>
<path d="M26.4297 69.2051C25.9189 68.9051 25.86 68.7019 26.1658 68.1911C26.4715 67.6802 26.65 67.6347 27.1418 67.8891L27.7647 68.2537L28.1331 67.6271L28.6477 67.9309L27.5349 69.8469L26.4297 69.2051ZM27.0583 68.4341C26.8285 68.2993 26.7924 68.305 26.6785 68.4911C26.5646 68.6772 26.5721 68.7285 26.8038 68.8709L27.2501 69.1329L27.5026 68.7019L27.0583 68.4341Z" fill="white"/>
<path d="M26.4219 66.6131L25.1078 68.4057L24.2362 67.7657L24.9426 66.2352L24.9255 66.2219L23.6779 67.3613L22.8291 66.7384L24.1432 64.9477L24.6255 65.3009L23.6494 66.6302L23.6627 66.6397L24.9103 65.5003L25.6566 66.0472L24.9483 67.5758L24.9635 67.5872L25.9396 66.258L26.4219 66.6131Z" fill="white"/>
<path d="M20.8223 64.9591L21.1641 64.5793L22.0756 65.3978L22.3034 65.1433L21.4774 64.4008L21.8002 64.04L22.6282 64.7825L22.875 64.5052L21.9578 63.6849L22.2996 63.3051L23.6612 64.5261L22.18 66.1801L20.8223 64.9591Z" fill="white"/>
<path d="M20.2374 64.3951L19.8576 63.9811L20.0741 62.4354L20.0627 62.4221L19.1759 63.25L18.7676 62.8133L20.3912 61.2941L20.771 61.7043L20.5602 63.2519L20.5716 63.2633L21.4565 62.4373L21.8648 62.8741L20.2374 64.3951Z" fill="white"/>
<path d="M18.2872 61.4251L18.7068 61.9606L18.3042 62.2853L17.0908 60.7301L17.4934 60.4149L17.9188 60.9561L19.2613 59.9003L19.6316 60.3712L18.2872 61.4251Z" fill="white"/>
<path d="M17.3218 56.9683C17.787 57.7488 17.7016 58.0602 16.9192 58.5312C16.1369 59.0021 15.8178 58.9205 15.3526 58.14C14.8874 57.3595 14.9405 57.0652 15.6109 56.6721L15.9318 57.2114C15.552 57.4317 15.5368 57.5 15.7704 57.8912C16.0039 58.2824 16.0875 58.2957 16.5983 57.9919C17.1091 57.688 17.1395 57.6121 16.9059 57.2152C16.6724 56.8183 16.604 56.805 16.2261 57.0367L15.9052 56.4974C16.5736 56.1005 16.8566 56.1936 17.3218 56.9683Z" fill="white"/>
<path d="M13.9346 55.4795C13.5396 54.6459 13.6479 54.3402 14.4777 53.9471C15.3076 53.554 15.6171 53.6679 16.0064 54.5016C16.3957 55.3352 16.2931 55.6409 15.4633 56.034C14.6334 56.4271 14.3296 56.3151 13.9346 55.4795ZM15.1917 55.4681C15.7291 55.2137 15.7614 55.1396 15.5715 54.7086C15.3816 54.2775 15.2867 54.2604 14.7493 54.5187C14.2119 54.7769 14.1796 54.8472 14.3695 55.2783C14.5594 55.7093 14.6562 55.7226 15.1917 55.4681Z" fill="white"/>
<path d="M13.1744 53.6907L12.7833 52.6121C12.5079 51.8525 12.6484 51.5848 13.484 51.2829C14.3195 50.9809 14.5968 51.093 14.8721 51.8525L15.2614 52.9311L13.1744 53.6907ZM14.0157 52.7545L14.5854 52.5495L14.4183 52.0899C14.2815 51.7101 14.2094 51.6873 13.7043 51.8715C13.1991 52.0557 13.1574 52.1165 13.2941 52.4982L13.4593 52.9558L14.0157 52.7545Z" fill="white"/>
<path d="M12.2345 50.9449L12.0693 50.3752L14.2056 49.7523L14.3709 50.322L12.2345 50.9449Z" fill="white"/>
<path d="M13.8302 48.0661C14.0201 48.9548 13.8454 49.2244 12.9472 49.4162C12.049 49.608 11.7812 49.4314 11.5913 48.5427C11.4014 47.654 11.5438 47.4033 12.3053 47.2381L12.4363 47.8515C12.0072 47.9369 11.9692 47.9958 12.0566 48.4421C12.1439 48.8883 12.2275 48.9263 12.8161 48.8029C13.4048 48.6794 13.4504 48.613 13.3554 48.1667C13.2605 47.7205 13.2016 47.6806 12.7687 47.7869L12.6376 47.1736C13.401 46.9989 13.6403 47.1774 13.8302 48.0661Z" fill="white"/>
<path d="M11.0498 44.8512L11.5587 44.7885L11.7068 46.0057L12.0449 45.9639L11.9119 44.8606L12.3924 44.8018L12.5272 45.9051L12.8937 45.8595L12.7456 44.6385L13.2545 44.5758L13.4824 46.3931L11.2777 46.6608L11.0498 44.8512Z" fill="white"/>
<path d="M10.9072 42.7034L10.9262 41.5641C10.9395 40.7532 11.1655 40.5538 12.0542 40.569C12.9429 40.5842 13.1613 40.7893 13.148 41.6002L13.129 42.7395L10.9072 42.7034ZM12.0295 42.1338H12.6277V41.6476C12.6277 41.2432 12.5745 41.1957 12.0371 41.1881C11.4997 41.1805 11.437 41.2242 11.4313 41.6286V42.1148L12.0295 42.1338Z" fill="white"/>
<path d="M11.1466 37.9789L11.6574 38.0264L11.5454 39.2455L11.8853 39.2778L11.9878 38.1707L12.4702 38.2162L12.3676 39.3081L12.736 39.3423L12.85 38.1175L13.3608 38.165L13.1918 39.9861L10.9795 39.781L11.1466 37.9789Z" fill="white"/>
<path d="M13.7067 36.097L13.5358 37.0275L11.2305 37.2877L11.3482 36.6439L13.0573 36.454V36.4369L11.5286 35.609L11.6406 34.9899L13.7067 36.097Z" fill="white"/>
<path d="M12.3009 32.5422L12.7946 32.6771L12.4699 33.8582L12.8003 33.9494L13.1023 32.8784L13.5694 33.0056L13.2751 34.0766L13.6321 34.1753L13.9568 32.9885L14.4524 33.1233L13.9682 34.8874L11.8262 34.2988L12.3009 32.5422Z" fill="white"/>
<path d="M12.7492 31.2205L14.3576 31.8016L14.7241 30.7819L15.2083 30.9566L14.6386 32.5384L12.5498 31.7788L12.7492 31.2205Z" fill="white"/>
<path d="M13.7941 28.5639C14.1739 27.7265 14.4834 27.6144 15.3132 27.9942C16.1431 28.374 16.2627 28.6816 15.8715 29.5134C15.4803 30.3451 15.1822 30.4628 14.3524 30.0831C13.5225 29.7033 13.4086 29.4032 13.7941 28.5639ZM14.6144 29.5134C15.1556 29.764 15.2354 29.7431 15.4348 29.3121C15.6342 28.881 15.5962 28.8051 15.055 28.5525C14.5138 28.2999 14.4321 28.3341 14.2422 28.7671C14.0523 29.2 14.0732 29.2722 14.622 29.521L14.6144 29.5134Z" fill="white"/>
<path d="M15.3091 25.7345C15.6053 25.2218 15.8085 25.1648 16.3212 25.4629C16.8339 25.7611 16.8909 25.9453 16.6307 26.4371L16.2699 27.0656L16.9004 27.4283L16.6003 27.9467L14.6748 26.8359L15.3091 25.7345ZM16.0838 26.3592C16.2186 26.1276 16.2129 26.0915 16.025 25.9794C15.837 25.8674 15.7857 25.875 15.6452 26.1067L15.385 26.5567L15.818 26.8055L16.0838 26.3592Z" fill="white"/>
<path d="M17.9047 25.7041L16.1045 24.4052L16.7368 23.5279L18.2712 24.2248L18.2845 24.2059L17.1451 22.9658L17.7604 22.1151L19.5587 23.414L19.2074 23.8982L17.8686 22.9336V22.9468L19.008 24.185L18.4649 24.9445L16.9305 24.2495V24.2628L18.2598 25.2294L17.9047 25.7041Z" fill="white"/>
<path d="M19.5193 20.0984L19.899 20.4384L19.0882 21.3556L19.3445 21.5815L20.0794 20.7498L20.4421 21.0707L19.7072 21.9024L19.9845 22.1474L20.7991 21.2264L21.1789 21.5663L19.9674 22.9355L18.3115 21.4581L19.5193 20.0984Z" fill="white"/>
<path d="M20.0771 19.5079L20.4892 19.1281L22.0388 19.3332L22.0502 19.3218L21.2165 18.4407L21.6476 18.0191L23.1667 19.6332L22.7566 20.013L21.2089 19.8117L21.1956 19.8231L22.0293 20.7023L21.5944 21.1144L20.0771 19.5079Z" fill="white"/>
<path d="M23.0401 17.5348L22.5084 17.9583L22.1875 17.5576L23.7256 16.3347L24.0447 16.7354L23.5073 17.1627L24.5726 18.4919L24.1035 18.8717L23.0401 17.5348Z" fill="white"/>
<path d="M27.4816 16.5417C26.703 17.0108 26.3916 16.9348 25.9168 16.1505C25.4421 15.3663 25.5181 15.053 26.2966 14.582C27.0752 14.1111 27.3676 14.1604 27.7645 14.8289L27.229 15.1536C27.0068 14.7738 26.9385 14.7605 26.5473 14.996C26.1561 15.2315 26.1447 15.3169 26.4542 15.8258C26.7638 16.3347 26.834 16.3632 27.2328 16.1259C27.6316 15.8885 27.6411 15.822 27.4056 15.446L27.943 15.1213C28.3494 15.7859 28.2582 16.0708 27.4816 16.5417Z" fill="white"/>
<path d="M28.9517 13.1445C29.7853 12.7438 30.0911 12.8501 30.4879 13.6762C30.8848 14.5022 30.7766 14.8155 29.9449 15.2086C29.1131 15.6017 28.8055 15.503 28.4086 14.6769C28.0117 13.8509 28.12 13.5451 28.9517 13.1445ZM28.9745 14.4054C29.2327 14.9409 29.3068 14.975 29.7341 14.7719C30.1613 14.5687 30.1803 14.4851 29.924 13.9477C29.6676 13.4103 29.5916 13.378 29.1644 13.5812C28.7371 13.7844 28.7162 13.8623 28.9745 14.4054Z" fill="white"/>
<path d="M30.7324 12.3716L31.8091 11.9729C32.5687 11.6918 32.8384 11.8304 33.1384 12.6641C33.4384 13.4977 33.3283 13.775 32.5687 14.056L31.492 14.4548L30.7324 12.3716ZM31.6819 13.2072L31.8927 13.7769L32.3484 13.6079C32.7282 13.4673 32.751 13.3952 32.563 12.8901C32.375 12.3849 32.3142 12.3451 31.9345 12.4856L31.4768 12.6546L31.6819 13.2072Z" fill="white"/>
<path d="M33.4805 11.4127L34.0502 11.2437L34.6768 13.3762L34.1071 13.5452L33.4805 11.4127Z" fill="white"/>
<path d="M36.3609 12.9888C35.4741 13.1787 35.2026 13.0116 35.0051 12.1153C34.8076 11.219 34.9804 10.9493 35.8672 10.7518C36.754 10.5543 37.0161 10.6968 37.1794 11.4582L36.566 11.5931C36.4768 11.1639 36.4179 11.1278 35.9717 11.2266C35.5254 11.3253 35.4874 11.3994 35.6166 11.9862C35.7457 12.5729 35.8064 12.6204 36.2565 12.5217C36.7065 12.4229 36.7407 12.3659 36.6363 11.933L37.2477 11.7982C37.4262 12.552 37.2496 12.7932 36.3609 12.9888Z" fill="white"/>
<path d="M39.5588 10.1859L39.6233 10.6948L38.4099 10.8505L38.4536 11.1905L39.555 11.048L39.6176 11.5285L38.5144 11.6709L38.5618 12.0374L39.7828 11.8798L39.8493 12.3887L38.0358 12.6223L37.751 10.4195L39.5588 10.1859Z" fill="white"/>
<path d="M41.6494 10.0644L42.7888 10.0473C43.5996 10.034 43.8066 10.2524 43.8199 11.1411C43.8332 12.0298 43.63 12.2558 42.8249 12.2691L41.6855 12.2862L41.6494 10.0644ZM42.2628 11.1658L42.2761 11.764H42.7641C43.1686 11.764 43.2122 11.6975 43.2027 11.1582C43.1933 10.6189 43.1477 10.5619 42.7432 10.5676H42.2571L42.2628 11.1658Z" fill="white"/>
<path d="M46.4427 10.2391L46.3991 10.7499L45.1799 10.6436L45.1495 10.9854L46.2566 11.0803L46.2149 11.5627L45.1078 11.4677L45.0774 11.8361L46.3022 11.9405L46.2585 12.4514L44.4355 12.2956L44.6254 10.0834L46.4427 10.2391Z" fill="white"/>
<path d="M48.3318 12.7818L47.4013 12.6204L47.124 10.317L47.7697 10.429L47.9766 12.138H47.9937L48.8103 10.6037L49.4293 10.7119L48.3318 12.7818Z" fill="white"/>
<path d="M51.8826 11.3538L51.7496 11.8494L50.5666 11.5342L50.4774 11.8646L51.5522 12.1533L51.4268 12.6204L50.3539 12.3337L50.2571 12.6907L51.4458 13.0097L51.3148 13.5053L49.5469 13.0325L50.1166 10.8848L51.8826 11.3538Z" fill="white"/>
<path d="M53.2089 11.7944L52.6392 13.4066L53.6608 13.7674L53.4899 14.2516L51.9043 13.6819L52.6468 11.5931L53.2089 11.7944Z" fill="white"/>
<path d="M55.8668 12.8198C56.708 13.1996 56.8163 13.5034 56.446 14.339C56.0757 15.1745 55.7642 15.2884 54.9268 14.9086C54.0894 14.5288 53.9773 14.225 54.3476 13.3895C54.7179 12.5539 55.0255 12.44 55.8668 12.8198ZM54.9173 13.6458C54.6704 14.1889 54.6913 14.2706 55.1243 14.4662C55.5573 14.6618 55.6313 14.6238 55.8839 14.0864C56.1364 13.549 56.1079 13.4635 55.675 13.266C55.242 13.0686 55.1604 13.1027 54.9154 13.6458H54.9173Z" fill="white"/>
<path d="M58.7058 14.3162C59.2204 14.6086 59.2754 14.8118 58.9849 15.3264C58.6944 15.841 58.5083 15.8961 58.0126 15.6435L57.3841 15.2865L57.0252 15.917L56.5049 15.6226L57.6006 13.6895L58.7058 14.3162ZM58.0867 15.0947C58.3203 15.2277 58.3564 15.222 58.4665 15.034C58.5766 14.846 58.569 14.7947 58.3374 14.6542L57.8854 14.3978L57.6405 14.8327L58.0867 15.0947Z" fill="white"/>
<path d="M58.751 16.9101L60.0385 15.0985L60.9215 15.7271L60.2341 17.2652L60.253 17.2785L61.4855 16.1277L62.34 16.7373L61.0525 18.547L60.5645 18.2014L61.5253 16.855L61.512 16.8455L60.2796 17.9963L59.52 17.4589L60.2056 15.9208L60.1923 15.9094L59.2466 17.2557L58.751 16.9101Z" fill="white"/>
<path d="M64.3742 18.4824L64.0362 18.8622L63.1133 18.0571L62.8892 18.3153L63.7266 19.0445L63.4076 19.4091L62.5702 18.6799L62.3271 18.9591L63.2538 19.768L62.9177 20.1478L61.5391 18.9477L62.9955 17.2804L64.3742 18.4824Z" fill="white"/>
<path d="M64.9669 19.0426L65.3581 19.4528L65.1682 21.0004L65.1796 21.0137L66.055 20.1725L66.4633 20.6035L64.8625 22.1436L64.4713 21.7372L64.6612 20.1877L64.6498 20.1744L63.7763 21.0137L63.3623 20.5826L64.9669 19.0426Z" fill="white"/>
<path d="M66.957 21.9879L66.5298 21.4581L66.9285 21.1371L68.161 22.6563L67.7622 22.9791L67.3311 22.4436L66.0019 23.5165L65.6221 23.0513L66.957 21.9879Z" fill="white"/>
<path d="M67.9819 26.4219C67.5071 25.6472 67.5812 25.3338 68.3616 24.8534C69.1421 24.373 69.4573 24.4489 69.9321 25.2332C70.4068 26.0175 70.3593 26.3004 69.6928 26.703L69.3662 26.1694C69.746 25.9434 69.7574 25.875 69.5181 25.4858C69.2788 25.0965 69.1972 25.087 68.6883 25.3984C68.1793 25.7098 68.1528 25.7782 68.392 26.177C68.6313 26.5757 68.6978 26.5852 69.0737 26.3479L69.4023 26.8815C68.7414 27.2841 68.4547 27.1967 67.9819 26.4219Z" fill="white"/>
<path d="M71.3875 27.8651C71.7957 28.695 71.6913 29.0045 70.8671 29.4052C70.043 29.8059 69.7373 29.7033 69.3309 28.8735C68.9245 28.0436 69.0271 27.7341 69.8512 27.3334C70.6754 26.9327 70.9811 27.0353 71.3875 27.8651ZM70.1285 27.8955C69.593 28.1576 69.5588 28.2335 69.7658 28.6551C69.9727 29.0767 70.0563 29.0994 70.5918 28.845C71.1273 28.5905 71.1615 28.507 70.9526 28.0854C70.7437 27.6638 70.6621 27.6335 70.1285 27.8955Z" fill="white"/>
<path d="M72.175 29.6463L72.5795 30.7211C72.8663 31.4807 72.7295 31.7484 71.8978 32.0618C71.0661 32.3751 70.7869 32.2649 70.5002 31.5054L70.0957 30.4306L72.175 29.6463ZM71.3452 30.5958L70.7869 30.8104L70.9578 31.2661C71.1021 31.6459 71.1743 31.6649 71.6775 31.475C72.1807 31.2851 72.2206 31.2224 72.0782 30.8426L71.9073 30.3869L71.3452 30.5958Z" fill="white"/>
<path d="M73.1512 32.3846L73.324 32.9543L71.1972 33.5961L71.0244 33.0264L73.1512 32.3846Z" fill="white"/>
<path d="M71.5902 35.2805C71.3889 34.3956 71.5617 34.1221 72.4542 33.9189C73.3467 33.7157 73.622 33.8866 73.8233 34.7735C74.0246 35.6603 73.886 35.9128 73.1264 36.0875L72.9878 35.4761C73.4169 35.3849 73.4511 35.3241 73.3505 34.8798C73.2498 34.4354 73.1739 34.3975 72.5909 34.5304C72.0079 34.6633 71.9586 34.7203 72.0611 35.1722C72.1636 35.6242 72.2206 35.6565 72.6517 35.552L72.7922 36.1635C72.0383 36.342 71.7952 36.1654 71.5902 35.2805Z" fill="white"/>
<path d="M74.4214 38.4555L73.9125 38.5239L73.7472 37.3104L73.4092 37.356L73.5593 38.4574L73.0788 38.5239L72.9288 37.4225L72.5623 37.4718L72.7275 38.691L72.2205 38.7612L71.9736 36.9496L74.1745 36.6496L74.4214 38.4555Z" fill="white"/>
<path d="M74.5695 40.569L74.5885 41.7084C74.6018 42.5211 74.3834 42.7262 73.4947 42.7414C72.606 42.7566 72.38 42.5515 72.3667 41.7445L72.3496 40.6051L74.5695 40.569ZM73.47 41.1824L72.8718 41.1938V41.6818C72.8718 42.0863 72.9383 42.13 73.4776 42.1224C74.0169 42.1148 74.0738 42.0654 74.0682 41.6609V41.1748L73.47 41.1824Z" fill="white"/>
<path d="M74.4144 45.3411L73.9035 45.2993L74.0004 44.0783L73.6605 44.0555L73.5712 45.1626L73.0889 45.1246L73.1782 44.0175L72.8079 43.9872L72.711 45.2139L72.2002 45.174L72.3445 43.351L74.5587 43.5276L74.4144 45.3411Z" fill="white"/>
<path d="M71.8828 47.2457L72.0404 46.3134L74.3419 46.0228L74.2318 46.6685L72.5228 46.8849V46.9039L74.0609 47.711L73.9565 48.3319L71.8828 47.2457Z" fill="white"/>
<path d="M73.3389 50.7854L72.8414 50.6562L73.1491 49.4713L72.8186 49.3858L72.5395 50.4606L72.0705 50.3391L72.3496 49.2624L71.9907 49.1694L71.6812 50.3619L71.1855 50.2328L71.6451 48.463L73.7966 49.0212L73.3389 50.7854Z" fill="white"/>
<path d="M72.9046 52.1146L71.2905 51.5564L70.9373 52.5799L70.4512 52.4109L71 50.8234L73.1097 51.5488L72.9046 52.1146Z" fill="white"/>
<path d="M71.8994 54.7846C71.5196 55.6277 71.2215 55.7473 70.3803 55.3751C69.539 55.0029 69.4308 54.6991 69.8106 53.856C70.1904 53.0128 70.4866 52.8932 71.3297 53.2673C72.1729 53.6414 72.2735 53.9395 71.8994 54.7846ZM71.0658 53.8351C70.5208 53.5939 70.441 53.6148 70.2473 54.0497C70.0536 54.4845 70.0935 54.5586 70.6366 54.7997C71.1797 55.0409 71.2633 55.02 71.4551 54.5852C71.6469 54.1503 71.6089 54.08 71.0658 53.837V53.8351Z" fill="white"/>
<path d="M70.4228 57.6292C70.1341 58.1457 69.9328 58.1989 69.4144 57.914C68.896 57.6292 68.8447 57.4412 69.0916 56.9437L69.4448 56.3132L68.8105 55.96L69.103 55.4378L71.0418 56.5202L70.4228 57.6292ZM69.6404 57.0158C69.5094 57.2494 69.5151 57.2855 69.705 57.3956C69.8948 57.5058 69.9442 57.4982 70.0752 57.2646L70.3278 56.8107L69.8929 56.5677L69.6404 57.0158Z" fill="white"/>
<path d="M67.8307 57.6918L69.6499 58.9679L69.0289 59.8528L67.4851 59.1787L67.4718 59.1977L68.632 60.4206L68.0282 61.2808L66.209 60.0066L66.5527 59.5167L67.9047 60.4662L67.9161 60.4529L66.7559 59.23L67.2857 58.4704L68.8314 59.1464V59.1312L67.4775 58.1818L67.8307 57.6918Z" fill="white"/>
<path d="M66.29 63.326L65.9102 62.9918L66.7097 62.0632L66.4495 61.841L65.726 62.6823L65.3595 62.367L66.083 61.5258L65.802 61.2846L65.0006 62.217L64.6113 61.8828L65.8039 60.4966L67.4882 61.9455L66.29 63.326Z" fill="white"/>
<path d="M65.7397 63.9223L65.3333 64.3173L63.7837 64.1274L63.7704 64.1388L64.6174 65.0085L64.1901 65.4262L62.6387 63.8349L63.0431 63.4399L64.5927 63.6203L64.606 63.6089L63.7609 62.7411L64.1882 62.3234L65.7397 63.9223Z" fill="white"/>
<path d="M62.8036 65.937L63.3296 65.5136L63.6543 65.9104L62.1352 67.1543L61.8105 66.7574L62.3422 66.3225L61.2598 64.9933L61.7231 64.6135L62.8036 65.937Z" fill="white"/>
<path d="M68.4015 42.1148C68.4015 56.3828 56.835 67.9493 42.567 67.9493C28.2989 67.9493 16.7324 56.3828 16.7324 42.1148C16.7324 27.8467 28.2989 16.2802 42.567 16.2802C56.835 16.2802 68.4015 27.8467 68.4015 42.1148Z" stroke="white"/>
<mask id="mask0_402_969" style="mask-type:luminance" maskUnits="userSpaceOnUse" x="16" y="16" width="54" height="53">
<path d="M42.692 68.8292C57.2362 68.8292 69.0265 57.0388 69.0265 42.4946C69.0265 27.9504 57.2362 16.16 42.692 16.16C28.1478 16.16 16.3574 27.9504 16.3574 42.4946C16.3574 57.0388 28.1478 68.8292 42.692 68.8292Z" fill="white"/>
</mask>
<g mask="url(#mask0_402_969)">
<path d="M66.708 42.5364C67.0479 42.3996 67.1599 41.847 67.4505 41.5869C67.6407 41.4192 67.8649 41.2946 68.1078 41.2215C68.3506 41.1484 68.6064 41.1286 68.8576 41.1634C69.0537 41.2237 69.2616 41.2354 69.4633 41.1976C69.7899 41.0818 69.619 39.7867 69.8678 39.3955C70.2476 38.7992 71.0471 38.5923 71.7421 38.7119C72.4371 38.8315 73.0523 39.2189 73.641 39.5949C73.7549 39.2708 73.9582 38.9855 74.2274 38.772C74.4966 38.5585 74.8207 38.4255 75.1622 38.3884C75.5038 38.3512 75.8489 38.4115 76.1576 38.5621C76.4664 38.7128 76.7263 38.9477 76.9072 39.2398C79.7993 43.8409 79.6284 49.8112 79.1859 55.2289C78.7435 60.6466 77.6763 66.108 77.3231 71.5313C76.942 72.0894 76.4081 72.5256 75.7853 72.7877C75.1625 73.0498 74.4772 73.1267 73.8119 73.009C73.1465 72.8913 72.5292 72.5841 72.034 72.1243C71.5389 71.6645 71.187 71.0715 71.0205 70.4167C69.8963 70.9123 68.5347 70.6312 67.5283 69.9248C66.5219 69.2184 65.8326 68.1436 65.3388 67.0176C65.0065 67.5739 64.0096 67.4866 63.7798 66.8808C63.1991 67.4369 62.49 67.8409 61.7155 68.0568C60.941 68.2727 60.1251 68.2938 59.3405 68.1183C58.5559 67.9428 57.8268 67.576 57.2181 67.0507C56.6095 66.5254 56.1401 65.8577 55.8517 65.1072C54.9345 65.9978 53.3945 65.9921 52.2874 65.3522C51.1803 64.7122 50.4549 63.5653 49.9764 62.3803C49.7497 62.5781 49.4622 62.6922 49.1616 62.7037C48.861 62.7152 48.5656 62.6234 48.3244 62.4436C48.0833 62.2637 47.9111 62.0067 47.8364 61.7154C47.7618 61.424 47.7892 61.1158 47.9141 60.8422C46.1538 60.9371 44.2814 60.8023 42.823 59.8111C41.3647 58.8198 40.5272 56.7443 41.4121 55.2194C41.1159 55.7283 39.3746 55.0409 39.0479 54.8396C38.5808 54.5605 38.315 54.1332 37.9826 53.7211C37.5459 53.1818 36.6648 53.5635 36.0495 53.5312C35.1978 53.4945 34.3636 53.2777 33.6018 52.8951C33.1506 52.6923 32.7585 52.378 32.4624 51.9817C31.906 51.1557 32.5194 49.6726 31.9117 49.0668C31.5661 48.7193 30.2027 49.1105 29.633 48.7896C28.9152 48.3794 28.5468 47.3103 29.0956 46.6913C26.7865 46.3969 24.4849 45.2443 23.3057 43.2371C22.1265 41.2299 22.3961 38.3321 24.2552 36.9193C23.4671 36.4104 22.6354 35.8521 22.2746 34.9862C21.9138 34.1202 22.2746 32.7853 23.1975 32.6353C21.8834 33.0151 20.4877 32.2954 19.4945 31.3535C17.7646 29.7147 16.7847 27.379 16.5398 25.0091C16.2948 22.6392 16.741 20.2352 17.5443 17.983C17.8595 17.0981 18.3457 16.1277 19.2533 15.8828C20.3376 17.3659 21.0687 19.0749 22.0182 20.6491C22.9677 22.2234 24.4508 23.6988 26.1579 24.3787C26.2918 23.2996 26.5902 22.2474 27.0428 21.2587C27.2202 20.8162 27.4909 20.4172 27.8366 20.0889C28.1622 19.8281 28.5416 19.6426 28.9475 19.5458C29.71 19.3404 30.5084 19.3055 31.286 19.4437C32.0635 19.5818 32.801 19.8897 33.4461 20.3453C33.6356 19.805 33.9665 19.3254 34.4042 18.9563C34.842 18.5873 35.3707 18.3423 35.9353 18.2469C36.4999 18.1515 37.0797 18.2092 37.6145 18.4139C38.1492 18.6187 38.6193 18.963 38.9758 19.411C41.1558 18.0609 42.8022 15.9758 44.0042 13.7142C45.2062 11.4525 46.0038 8.99721 46.7918 6.55707C48.2559 7.48565 49.8169 8.52817 50.3998 10.1651C50.605 10.822 50.7068 11.5068 50.7018 12.195C50.7844 14.7296 50.412 17.2585 49.6023 19.6617C49.2092 20.8257 48.6243 22.3848 47.5343 22.9526C48.7876 22.8462 50.0428 23.3475 51.0208 24.1375C51.6284 24.6312 52.1734 25.3015 52.2038 26.0839C52.2399 26.9517 51.6531 27.7056 51.0948 28.3626C51.9209 28.3266 52.6843 28.9437 52.9938 29.7128C53.3033 30.4819 53.2141 31.3573 52.9482 32.1396C52.5093 33.4163 51.6284 34.494 50.4644 35.178C51.4556 34.6083 52.6501 36.887 52.4621 37.6238C52.3102 38.2201 51.9057 38.7138 51.5354 39.2056C51.1936 39.6576 50.8404 40.1551 50.8081 40.74C50.8195 40.5368 53.0337 41.6002 53.2141 41.8565C53.4457 42.1927 53.44 42.6161 53.5027 42.9959C54.5167 43.0206 55.6542 42.4661 56.7119 42.3901C57.8076 42.3104 58.9489 42.4623 59.9002 43.013C60.574 43.4265 61.1557 43.9739 61.6093 44.6214C61.9264 45.0506 62.0404 45.6316 62.5854 45.3696C63.0563 45.1436 63.457 44.0403 63.8463 43.6358C64.2933 43.1394 64.8961 42.8099 65.5553 42.7016C65.8159 42.6922 66.0755 42.6636 66.332 42.6161C66.9624 42.4414 66.9017 41.7122 67.3422 41.3305C67.6661 41.0418 68.0675 40.8543 68.4968 40.7912C68.9271 40.7287 69.3652 40.8326 69.7216 41.0818" fill="#FFEDC9"/>
<path d="M48.9921 8.71426C49.6932 9.14505 50.2326 9.7952 50.5264 10.5638C51.2044 12.4191 50.891 14.4206 50.498 16.3347C50.2794 17.4638 49.9799 18.5756 49.6017 19.6617C49.4118 20.1744 49.1383 20.82 48.9294 21.3214C48.7368 21.7716 48.3901 22.1385 47.9515 22.3563C46.9014 22.926 45.6822 21.8758 44.7669 21.4068C44.1061 21.0669 43.2763 20.5922 43.0997 19.8041C42.9686 19.2211 43.3674 18.7464 43.7472 18.3571C44.1891 17.9174 44.5967 17.4444 44.9663 16.9424C45.819 15.7518 46.3791 14.4567 46.8843 13.0932C47.2641 12.0507 47.6647 11.0386 47.7388 9.9125C47.7692 9.43396 47.7654 8.95353 47.773 8.4731C47.7644 8.40108 47.7834 8.32848 47.8261 8.26991C47.9059 8.18826 48.0426 8.22813 48.1471 8.26991C48.4409 8.3936 48.7236 8.54226 48.9921 8.71426Z" fill="#FFC2C4"/>
<path d="M20.7913 24.0122C21.8091 24.9749 23.1725 25.7098 23.6397 27.0315C23.9321 27.8613 23.8049 28.7728 23.6397 29.6368C23.4821 30.4325 23.2713 31.2604 22.7282 31.8643C20.7476 34.0728 18.2068 30.0451 17.4605 28.4633C16.1768 25.7421 15.9015 20.5979 17.8631 18.0818C19.0442 16.5626 18.6227 19.3199 18.71 19.9256C18.9307 21.4811 19.6629 22.9189 20.7913 24.0122Z" fill="#FFC2C4"/>
<path d="M45.7466 32.7541C46.6277 32.4761 47.0492 31.3224 46.6879 30.1772C46.3266 29.032 45.3194 28.329 44.4382 28.607C43.5571 28.885 43.1357 30.0387 43.497 31.1839C43.8583 32.3291 44.8654 33.0321 45.7466 32.7541Z" fill="white"/>
<path d="M29.4487 38.3754C30.3299 38.0974 30.7513 36.9437 30.39 35.7985C30.0287 34.6533 29.0215 33.9503 28.1404 34.2283C27.2592 34.5063 26.8378 35.66 27.1991 36.8052C27.5604 37.9504 28.5676 38.6534 29.4487 38.3754Z" fill="white"/>
<path d="M32.3805 36.9724C32.2198 37.0824 32.0686 37.2056 31.9285 37.3408C30.529 38.7062 31.712 41.3457 32.8457 42.4908C36.6664 46.3513 43.6564 44.6119 45.7054 39.7145C46.6985 37.3389 45.937 34.4374 43.4494 33.3872C41.5979 32.603 39.7294 33.3607 38.0754 34.257C36.9683 34.8589 35.8157 35.345 34.6725 35.8768C33.9205 36.2281 33.0717 36.4939 32.3805 36.9724Z" fill="white"/>
<path d="M37.4984 37.2193C37.8634 37.1954 38.2184 37.0898 38.5372 36.9103C38.856 36.7309 39.1305 36.4822 39.3403 36.1825C39.5302 35.9052 39.6632 35.59 39.8739 35.328C40.0847 35.0659 40.4113 34.8589 40.7418 34.9178C43.0395 35.328 40.3905 39.5816 38.9833 39.8247C38.3339 39.9367 37.6693 39.7487 37.0426 39.5398C36.2622 39.2778 35.4684 38.9701 34.8816 38.3853C34.6673 38.1977 34.5221 37.9436 34.4695 37.6637C34.3157 36.3268 36.8717 37.263 37.4984 37.2193Z" fill="white"/>
<path d="M36.0479 41.2641C36.3774 41.5167 36.7748 41.6654 37.1892 41.6912C37.6037 41.7169 38.0164 41.6186 38.3747 41.4086C38.733 41.1987 39.0206 40.8868 39.2007 40.5126C39.3809 40.1385 39.4455 39.7192 39.3862 39.3082C39.766 40.119 40.8769 40.4912 41.739 40.2576C42.1672 40.1272 42.5382 39.8546 42.7906 39.4848C43.043 39.115 43.1617 38.6702 43.1271 38.2239" stroke="white" stroke-width="3" stroke-linecap="round" stroke-linejoin="round"/>
</g>
<path d="M56.706 42.3977C59.4481 42.2078 56.8579 45.8823 56.0699 46.9153C53.619 50.1245 51.0237 53.2186 48.2842 56.1974C47.2227 57.35 44.7749 60.1662 42.9235 59.7902C41.2486 59.4484 40.6447 56.5164 41.4043 55.2194C41.1081 55.7283 39.3667 55.0409 39.0401 54.8396C38.573 54.5605 38.3071 54.1332 37.9748 53.7211C37.5381 53.1818 36.657 53.5635 36.0417 53.5312C35.19 53.4945 34.3558 53.2777 33.594 52.8951C33.1428 52.6923 32.7507 52.378 32.4546 51.9817C31.8982 51.1557 32.5116 49.6726 31.9039 49.0668C31.5583 48.7193 30.1948 49.1105 29.6252 48.7896C28.9074 48.3794 28.539 47.3103 29.0878 46.6913C26.7786 46.3969 24.4771 45.2443 23.2979 43.2371C22.1186 41.2299 22.3883 38.3321 24.2474 36.9193C23.4593 36.4104 22.6276 35.8521 22.2668 34.9862C21.906 34.1202 22.2668 32.7853 23.1896 32.6353C21.8756 33.0151 20.4799 32.2954 19.4867 31.3535C17.7568 29.7147 16.7769 27.379 16.5319 25.0091C16.287 22.6392 16.7332 20.2352 17.5365 17.983C17.8517 17.0981 18.3378 16.1277 19.2455 15.8828C20.3298 17.3659 21.0609 19.0749 22.0104 20.6491C22.9599 22.2234 24.4429 23.6988 26.1501 24.3787C26.284 23.2996 26.5824 22.2474 27.035 21.2587C27.2124 20.8162 27.4831 20.4172 27.8288 20.0889C28.1544 19.8281 28.5338 19.6426 28.9396 19.5458C29.7022 19.3404 30.5006 19.3055 31.2781 19.4437C32.0557 19.5818 32.7932 19.8897 33.4382 20.3453C33.6278 19.805 33.9586 19.3254 34.3964 18.9563C34.8342 18.5873 35.3629 18.3423 35.9275 18.2469C36.4921 18.1515 37.0719 18.2092 37.6066 18.4139C38.1414 18.6187 38.6115 18.963 38.968 19.411C41.148 18.0609 42.7943 15.9758 43.9964 13.7142C45.1984 11.4525 45.996 8.99721 46.784 6.55707C48.2481 7.48565 49.809 8.52817 50.392 10.1651C50.5997 10.8216 50.7042 11.5064 50.7015 12.195C50.7842 14.7296 50.4118 17.2585 49.6021 19.6617C49.209 20.8257 48.6241 22.3848 47.5341 22.9526C48.7874 22.8462 50.0426 23.3475 51.0206 24.1375C51.6282 24.6312 52.1732 25.3015 52.2036 26.0839C52.2397 26.9517 51.6529 27.7056 51.0946 28.3626C51.9207 28.3266 52.684 28.9437 52.9936 29.7128C53.3031 30.4819 53.2138 31.3573 52.948 32.1396C52.5091 33.4164 51.6281 34.494 50.4642 35.178C51.4554 34.6083 52.6499 36.887 52.4619 37.6238C52.31 38.2201 51.9055 38.7138 51.5352 39.2056C51.1934 39.6576 50.8402 40.1551 50.8079 40.74C50.8193 40.5368 53.0335 41.6002 53.2139 41.8565C53.4455 42.1927 53.4398 42.6161 53.5025 42.9959C54.5108 43.0282 55.6483 42.4737 56.706 42.3977Z" fill="#FFEDC9"/>
<path d="M48.9931 8.71426C49.6942 9.14505 50.2336 9.7952 50.5274 10.5638C51.2053 12.4191 50.892 14.4206 50.4989 16.3347C50.2804 17.4638 49.9809 18.5756 49.6026 19.6617C49.4127 20.1744 49.1393 20.82 48.9304 21.3214C48.7378 21.7716 48.3911 22.1385 47.9525 22.3563C46.9023 22.926 45.6832 21.8758 44.7679 21.4068C44.1071 21.0669 43.2773 20.5922 43.1007 19.8041C42.9696 19.2211 43.3684 18.7464 43.7482 18.3571C44.1901 17.9174 44.5977 17.4444 44.9673 16.9424C45.8199 15.7518 46.3801 14.4567 46.8852 13.0932C47.265 12.0507 47.6657 11.0386 47.7398 9.9125C47.7702 9.43396 47.7664 8.95353 47.774 8.4731C47.7653 8.40108 47.7843 8.32848 47.8271 8.26991C47.9069 8.18826 48.0436 8.22813 48.148 8.26991C48.4419 8.3936 48.7246 8.54226 48.9931 8.71426Z" fill="#FFC2C4"/>
<path d="M20.7913 24.0122C21.8091 24.9749 23.1725 25.7098 23.6397 27.0315C23.9321 27.8613 23.8049 28.7728 23.6397 29.6368C23.4821 30.4325 23.2713 31.2604 22.7282 31.8643C20.7476 34.0728 18.2068 30.0451 17.4605 28.4633C16.1768 25.7421 15.9015 20.5979 17.8631 18.0818C19.0442 16.5626 18.6227 19.3199 18.71 19.9256C18.9307 21.4811 19.6629 22.9189 20.7913 24.0122Z" fill="#FFC2C4"/>
<path d="M45.7466 32.7541C46.6277 32.4761 47.0492 31.3224 46.6879 30.1772C46.3266 29.032 45.3194 28.329 44.4382 28.607C43.5571 28.885 43.1357 30.0387 43.497 31.1839C43.8583 32.3291 44.8654 33.0321 45.7466 32.7541Z" fill="black"/>
<path d="M29.4497 38.3753C30.3309 38.0973 30.7523 36.9436 30.391 35.7984C30.0297 34.6532 29.0225 33.9502 28.1413 34.2282C27.2602 34.5062 26.8388 35.6599 27.2001 36.8051C27.5614 37.9503 28.5686 38.6533 29.4497 38.3753Z" fill="black"/>
<path d="M32.3805 36.9724C32.2198 37.0824 32.0686 37.2056 31.9285 37.3408C30.529 38.7062 31.712 41.3457 32.8457 42.4908C36.6664 46.3513 43.6564 44.6119 45.7054 39.7145C46.6985 37.3389 45.937 34.4374 43.4494 33.3872C41.5979 32.603 39.7294 33.3607 38.0754 34.257C36.9683 34.8589 35.8157 35.345 34.6725 35.8768C33.9205 36.2281 33.0717 36.4939 32.3805 36.9724Z" fill="white"/>
<path d="M37.4984 37.2193C37.8634 37.1954 38.2184 37.0898 38.5372 36.9103C38.856 36.7309 39.1305 36.4822 39.3403 36.1825C39.5302 35.9052 39.6632 35.59 39.8739 35.328C40.0847 35.0659 40.4113 34.8589 40.7418 34.9178C43.0395 35.328 40.3905 39.5816 38.9833 39.8247C38.3339 39.9367 37.6693 39.7487 37.0426 39.5398C36.2622 39.2778 35.4684 38.9701 34.8816 38.3853C34.6673 38.1977 34.5221 37.9436 34.4695 37.6637C34.3157 36.3268 36.8717 37.263 37.4984 37.2193Z" fill="black"/>
<path d="M36.0479 41.2641C36.3774 41.5167 36.7748 41.6654 37.1892 41.6912C37.6037 41.7169 38.0164 41.6186 38.3747 41.4086C38.733 41.1987 39.0206 40.8868 39.2007 40.5126C39.3809 40.1385 39.4455 39.7192 39.3862 39.3082C39.766 40.119 40.8769 40.4912 41.739 40.2576C42.1672 40.1272 42.5382 39.8546 42.7906 39.4848C43.043 39.115 43.1617 38.6702 43.1271 38.2239" stroke="black" stroke-linecap="round" stroke-linejoin="round"/>
<path d="M103.468 42.9423C94.2985 42.9423 92 40.6481 92 31.4088C92 22.1695 94.2985 19.8862 103.468 19.8862C112.638 19.8862 114.906 21.8379 114.852 29.6718H108.528C108.585 25.2547 108.068 24.779 103.468 24.779C98.8684 24.779 98.3237 25.4395 98.3237 31.436C98.3237 37.4324 98.8411 38.093 103.468 38.093C108.095 38.093 108.585 37.6037 108.528 33.1294H114.852C114.909 40.9634 112.638 42.9423 103.468 42.9423Z" fill="white"/>
<path d="M128.219 19.8862C137.53 19.8862 139.858 22.1804 139.858 31.4197C139.858 40.659 137.53 42.9532 128.219 42.9532C118.907 42.9532 116.576 40.659 116.576 31.4197C116.576 22.1804 118.905 19.8862 128.219 19.8862ZM122.9 31.4197C122.9 37.4161 123.417 38.0766 128.219 38.0766C133.02 38.0766 133.535 37.4161 133.535 31.4197C133.535 25.4232 133.017 24.7627 128.219 24.7627C123.42 24.7627 122.9 25.4124 122.9 31.4088V31.4197Z" fill="white"/>
<path d="M142.159 20.2205H153.744C161.936 20.2205 163.976 22.4576 163.976 31.4088C163.976 40.36 161.936 42.5971 153.744 42.5971H142.159V20.2205ZM148.167 31.4088L148.194 37.4324H153.096C157.181 37.4324 157.639 36.8317 157.639 31.4088C157.639 25.9859 157.179 25.3852 153.096 25.3852H148.194L148.167 31.4088Z" fill="white"/>
<path d="M166.274 20.2205H172.312V42.5971H166.274V20.2205Z" fill="white"/>
<path d="M186.082 42.9423C176.913 42.9423 174.611 40.6481 174.611 31.4088C174.611 22.1695 176.913 19.8862 186.082 19.8862C195.252 19.8862 197.52 21.8379 197.463 29.6718H191.14C191.197 25.2547 190.679 24.779 186.082 24.779C181.485 24.779 180.935 25.4395 180.935 31.436C180.935 37.4324 181.452 38.093 186.082 38.093C190.712 38.093 191.197 37.6037 191.14 33.1294H197.463C197.52 40.9634 195.252 42.9423 186.082 42.9423Z" fill="white"/>
<path d="M218.16 20.2205V25.3852H205.799V28.8265H217.011V33.703H205.799V37.4324H218.217V42.5971H199.764V20.2205H218.16Z" fill="white"/>
<path d="M92 52.4943H97.799C101.901 52.4943 102.922 53.6142 102.922 58.0966C102.922 62.579 101.901 63.6989 97.799 63.6989H92V52.4943ZM95.0083 58.0966L95.0226 61.1135H97.4727C99.5163 61.1135 99.7453 60.8106 99.7453 58.0966C99.7453 55.3826 99.5278 55.0855 97.4727 55.0855H95.0111L95.0083 58.0966Z" fill="white"/>
<path d="M113.284 52.4943V55.0655H107.096V56.7796H112.709V59.2222H107.096V61.0906H113.313V63.6618H104.076V52.4943H113.284Z" fill="white"/>
<path d="M122.122 63.6989H117.342L113.962 52.4943H117.271L119.79 60.8249H119.875L122.612 52.4943H125.792L122.122 63.6989Z" fill="white"/>
<path d="M135.793 52.4943V55.0655H129.605V56.7796H135.218V59.2222H129.605V61.0906H135.827V63.6618H126.582V52.4943H135.793Z" fill="white"/>
<path d="M140.138 52.4943V61.1135H145.608V63.6847H137.118V52.4943H140.138Z" fill="white"/>
<path d="M151.796 52.3229C156.459 52.3229 157.624 53.4657 157.624 58.0967C157.624 62.7277 156.459 63.8704 151.796 63.8704C147.134 63.8704 145.969 62.7277 145.969 58.0967C145.969 53.4657 147.134 52.3229 151.796 52.3229ZM149.134 58.0967C149.134 61.0993 149.392 61.4278 151.796 61.4278C154.201 61.4278 154.458 61.0993 154.458 58.0967C154.458 55.0941 154.201 54.7627 151.796 54.7627C149.392 54.7627 149.134 55.0855 149.134 58.0967Z" fill="white"/>
<path d="M165.194 52.4943C168.188 52.4943 168.935 53.2399 168.935 56.2282C168.935 59.1308 168.245 59.8907 165.454 60.0364H161.799V63.6989H158.776V52.4943H165.194ZM164.418 57.4509C165.769 57.4509 165.912 57.3338 165.912 56.2425C165.912 55.0655 165.769 54.9369 164.418 54.9369H161.799V57.4509H164.418Z" fill="white"/>
<path d="M170.089 63.6989V52.4943H175.556L177.239 60.8249H177.356L179.048 52.4943H184.357V63.6989H181.338V55.3711H181.252L179.554 63.7018H174.88L173.197 55.3711H173.109V63.7018L170.089 63.6989Z" fill="white"/>
<path d="M195.014 52.4943V55.0655H188.825V56.7796H194.438V59.2222H188.825V61.0906H195.042V63.6618H185.803V52.4943H195.014Z" fill="white"/>
<path d="M196.339 52.4943H199.201L204.167 58.6137H204.253V52.4943H207.276V63.6989H204.413L199.436 57.5938H199.37V63.6989H196.339V52.4943Z" fill="white"/>
<path d="M211.506 55.0853H208.071V52.5141H218.001V55.0853H214.54V63.7045H211.506V55.0853Z" fill="white"/>
</svg>
