<svg width="163" height="192" viewBox="0 0 163 192" fill="none" xmlns="http://www.w3.org/2000/svg">
<path d="M81.1959 190.829C126.039 190.829 162.392 154.476 162.392 109.633C162.392 64.7898 126.039 28.4371 81.1959 28.4371C36.3526 28.4371 0 64.7898 0 109.633C0 154.476 36.3526 190.829 81.1959 190.829Z" fill="url(#paint0_linear_461_963)"/>
<mask id="mask0_461_963" style="mask-type:luminance" maskUnits="userSpaceOnUse" x="0" y="29" width="163" height="164">
<path d="M81.5826 192C126.426 192 162.778 155.648 162.778 110.804C162.778 65.9611 126.426 29.6085 81.5826 29.6085C36.7394 29.6085 0.386719 65.9611 0.386719 110.804C0.386719 155.648 36.7394 192 81.5826 192Z" fill="white"/>
</mask>
<g mask="url(#mask0_461_963)">
<path d="M155.629 110.933C156.677 110.511 157.022 108.808 157.918 108.005C158.505 107.488 159.196 107.104 159.945 106.879C160.694 106.654 161.482 106.592 162.257 106.7C162.862 106.886 163.502 106.922 164.124 106.805C165.131 106.448 164.604 102.455 165.371 101.249C166.542 99.4105 169.007 98.7723 171.15 99.1412C173.293 99.51 175.19 100.704 177.005 101.864C177.356 100.864 177.983 99.9847 178.813 99.3264C179.643 98.6682 180.642 98.2581 181.695 98.1436C182.749 98.0291 183.813 98.2149 184.765 98.6794C185.717 99.1439 186.518 99.8683 187.076 100.769C195.993 114.955 195.466 133.363 194.102 150.067C192.737 166.771 189.447 183.61 188.358 200.332C187.183 202.052 185.537 203.397 183.616 204.205C181.696 205.013 179.583 205.25 177.532 204.887C175.48 204.525 173.577 203.577 172.05 202.16C170.524 200.742 169.439 198.914 168.925 196.895C165.459 198.423 161.261 197.556 158.158 195.378C155.055 193.2 152.93 189.886 151.408 186.414C150.383 188.13 147.309 187.861 146.601 185.993C144.81 187.708 142.624 188.953 140.236 189.619C137.848 190.284 135.332 190.35 132.913 189.808C130.494 189.267 128.246 188.136 126.369 186.517C124.493 184.897 123.045 182.838 122.156 180.524C119.328 183.27 114.58 183.253 111.167 181.28C107.753 179.307 105.517 175.77 104.041 172.117C103.342 172.726 102.456 173.078 101.529 173.114C100.602 173.149 99.6915 172.866 98.948 172.312C98.2046 171.757 97.6736 170.965 97.4434 170.066C97.2132 169.168 97.2977 168.218 97.6829 167.374C92.2554 167.667 86.4824 167.251 81.9859 164.195C77.4893 161.139 74.9073 154.739 77.6357 150.038C76.7223 151.607 71.3534 149.488 70.3463 148.867C68.906 148.006 68.0863 146.689 67.0617 145.418C65.7151 143.756 62.9984 144.932 61.1014 144.833C58.4754 144.72 55.9033 144.051 53.5544 142.871C52.1633 142.246 50.9544 141.277 50.0415 140.055C48.326 137.508 50.2172 132.936 48.3436 131.068C47.278 129.997 43.0742 131.203 41.3177 130.213C39.1045 128.948 37.9687 125.652 39.6608 123.743C32.5412 122.836 25.445 119.282 21.8091 113.093C18.1732 106.905 19.0046 97.9702 24.7366 93.6141C22.3068 92.045 19.7424 90.3237 18.6299 87.6538C17.5175 84.984 18.6299 80.868 21.4754 80.4054C17.4238 81.5764 13.1205 79.3574 10.0583 76.4534C4.72452 71.4006 1.70338 64.1991 0.948099 56.8921C0.192816 49.5852 1.56872 42.1729 4.04535 35.229C5.01726 32.5006 6.51612 29.5087 9.31476 28.7535C12.6579 33.3261 14.9121 38.5956 17.8395 43.4493C20.767 48.303 25.3396 52.8523 30.6032 54.9483C31.016 51.6213 31.9362 48.3771 33.3316 45.3287C33.8785 43.9644 34.7132 42.7342 35.7789 41.7221C36.783 40.9179 37.9527 40.346 39.2041 40.0476C41.5551 39.4141 44.0169 39.3065 46.4142 39.7325C48.8115 40.1586 51.0855 41.1077 53.0743 42.5125C53.6587 40.8466 54.6789 39.3677 56.0287 38.2299C57.3785 37.092 59.0086 36.3367 60.7493 36.0426C62.4901 35.7485 64.2778 35.9263 65.9265 36.5576C67.5752 37.1888 69.0246 38.2504 70.1238 39.6319C76.8453 35.469 81.9215 29.0403 85.6276 22.0671C89.3338 15.094 91.7928 7.52356 94.2226 0C98.7368 2.86305 103.549 6.07739 105.347 11.1243C105.979 13.1498 106.294 15.2613 106.278 17.3832C106.533 25.198 105.385 32.9951 102.888 40.4047C101.676 43.9938 99.8726 48.8007 96.5119 50.5513C100.376 50.2234 104.246 51.7691 107.262 54.2047C109.135 55.727 110.815 57.7938 110.909 60.206C111.02 62.8817 109.211 65.2061 107.49 67.2319C110.037 67.1207 112.39 69.0235 113.345 71.3947C114.299 73.766 114.024 76.4651 113.204 78.8773C111.851 82.8137 109.135 86.1364 105.546 88.2452C108.602 86.4887 112.285 93.5146 111.705 95.7863C111.237 97.6247 109.99 99.147 108.848 100.663C107.794 102.057 106.705 103.591 106.606 105.394C106.641 104.768 113.468 108.046 114.024 108.837C114.738 109.873 114.721 111.179 114.914 112.35C118.04 112.426 121.547 110.716 124.809 110.482C128.187 110.236 131.706 110.705 134.639 112.403C136.716 113.677 138.51 115.365 139.908 117.362C140.886 118.685 141.238 120.476 142.918 119.668C144.37 118.972 145.605 115.57 146.806 114.323C148.184 112.792 150.042 111.776 152.075 111.442C152.879 111.413 153.679 111.325 154.47 111.179C156.413 110.64 156.226 108.392 157.584 107.215C158.583 106.325 159.821 105.747 161.144 105.552C162.471 105.36 163.822 105.68 164.921 106.448" fill="#FFEDC9"/>
<path d="M101.009 6.65095C103.171 7.97916 104.834 9.98374 105.74 12.3536C107.83 18.0739 106.864 24.245 105.652 30.1467C104.978 33.6279 104.055 37.056 102.888 40.4045C102.303 41.9853 101.46 43.976 100.816 45.5217C100.222 46.9099 99.1528 48.0411 97.8005 48.7126C94.5627 50.4691 90.8039 47.2313 87.9818 45.7852C85.9443 44.7371 83.3857 43.2734 82.8412 40.8436C82.4372 39.0462 83.6667 37.5824 84.8377 36.3822C86.2002 35.0263 87.4568 33.5681 88.5966 32.0203C91.2254 28.3492 92.9526 24.3562 94.51 20.1524C95.681 16.938 96.9164 13.8174 97.1447 10.3454C97.2384 8.86997 97.2267 7.38867 97.2501 5.90738C97.2236 5.68534 97.2821 5.46148 97.414 5.28091C97.6599 5.02915 98.0815 5.1521 98.4035 5.28091C99.3096 5.66228 100.181 6.12064 101.009 6.65095Z" fill="#FFC2C4"/>
<path d="M14.0579 53.8185C17.1961 56.787 21.3999 59.0528 22.8402 63.1278C23.7419 65.6864 23.3496 68.4968 22.8402 71.1608C22.3543 73.614 21.7044 76.1667 20.0299 78.0286C13.9232 84.8378 6.08934 72.4196 3.78836 67.5424C-0.169556 59.1523 -1.01852 43.2914 5.0296 35.5337C8.67135 30.8497 7.37156 39.3511 7.64089 41.2188C8.32129 46.0148 10.579 50.4478 14.0579 53.8185Z" fill="#FFC2C4"/>
<path d="M91.001 80.7719C93.7178 79.9148 95.0172 76.3576 93.9032 72.8268C92.7892 69.2959 89.6838 67.1283 86.967 67.9855C84.2502 68.8426 82.9509 72.3998 84.0649 75.9307C85.1788 79.4615 88.2843 81.6291 91.001 80.7719Z" fill="white"/>
<path d="M40.752 98.1037C43.4688 97.2466 44.7681 93.6894 43.6542 90.1585C42.5402 86.6277 39.4348 84.4601 36.718 85.3173C34.0012 86.1744 32.7019 89.7316 33.8158 93.2624C34.9298 96.7933 38.0352 98.9609 40.752 98.1037Z" fill="white"/>
<path d="M49.7906 93.7778C49.2952 94.1168 48.8291 94.4967 48.3972 94.9136C44.0821 99.1233 47.7297 107.262 51.2251 110.792C63.0052 122.695 84.5571 117.332 90.8745 102.232C93.9366 94.9078 91.5888 85.9615 83.9189 82.7237C78.2104 80.3056 72.4491 82.6417 67.3495 85.4052C63.9361 87.2613 60.3822 88.7601 56.8575 90.3995C54.539 91.4826 51.9218 92.3023 49.7906 93.7778Z" fill="white"/>
<path d="M65.5681 94.539C66.6936 94.4652 67.7883 94.1397 68.7712 93.5864C69.7541 93.0331 70.6003 92.2662 71.2473 91.3423C71.8328 90.4874 72.2427 89.5155 72.8926 88.7075C73.5425 87.8996 74.5495 87.2614 75.5683 87.4429C82.6527 88.7076 74.4851 101.823 70.1466 102.572C68.1442 102.917 66.095 102.338 64.1629 101.694C61.7565 100.886 59.3092 99.9373 57.5 98.1339C56.8391 97.5557 56.3916 96.7722 56.2295 95.9091C55.7553 91.7872 63.636 94.6737 65.5681 94.539Z" fill="white"/>
<path d="M61.0957 107.01C62.1118 107.789 63.337 108.247 64.6148 108.327C65.8927 108.406 67.1652 108.103 68.2699 107.456C69.3746 106.809 70.2613 105.847 70.8168 104.693C71.3723 103.54 71.5714 102.247 71.3886 100.98C72.5596 103.48 75.9847 104.627 78.6429 103.907C79.9633 103.505 81.107 102.664 81.8852 101.524C82.6633 100.384 83.0293 99.0126 82.9228 97.6364" stroke="white" stroke-width="8.96493" stroke-linecap="round" stroke-linejoin="round"/>
</g>
<path d="M124.791 110.506C133.246 109.92 125.259 121.249 122.83 124.434C115.273 134.329 107.271 143.869 98.8245 153.053C95.5517 156.607 88.0047 165.29 82.2961 164.131C77.1321 163.077 75.2703 154.037 77.6122 150.038C76.6989 151.607 71.3299 149.488 70.3229 148.867C68.8826 148.006 68.0629 146.689 67.0383 145.418C65.6916 143.756 62.975 144.932 61.078 144.833C58.452 144.72 55.8798 144.051 53.531 142.871C52.1399 142.246 50.9309 141.277 50.0181 140.055C48.3026 137.508 50.1937 132.936 48.3201 131.068C47.2545 129.997 43.0507 131.203 41.2942 130.213C39.0811 128.949 37.9452 125.652 39.6373 123.743C32.5177 122.836 25.4216 119.282 21.7857 113.093C18.1498 106.905 18.9812 97.9702 24.7131 93.6141C22.2834 92.045 19.7189 90.3237 18.6065 87.6538C17.494 84.984 18.6065 80.868 21.452 80.4055C17.4004 81.5764 13.097 79.3574 10.0349 76.4534C4.70108 71.4006 1.67994 64.1991 0.924662 56.8921C0.169379 49.5852 1.54528 42.1729 4.02191 35.229C4.99382 32.5006 6.49268 29.5087 9.29132 28.7535C12.6345 33.3261 14.8886 38.5956 17.8161 43.4493C20.7435 48.303 25.3162 52.8523 30.5798 54.9483C30.9926 51.6213 31.9127 48.3771 33.3081 45.3287C33.855 43.9645 34.6898 42.7343 35.7555 41.7221C36.7596 40.9179 37.9293 40.346 39.1806 40.0476C41.5317 39.4141 43.9934 39.3065 46.3908 39.7325C48.7881 40.1586 51.0621 41.1077 53.0509 42.5125C53.6352 40.8466 54.6554 39.3677 56.0052 38.2299C57.355 37.092 58.9851 36.3367 60.7259 36.0426C62.4666 35.7485 64.2544 35.9263 65.9031 36.5576C67.5518 37.1888 69.0012 38.2504 70.1004 39.6319C76.8218 35.469 81.898 29.0403 85.6042 22.0672C89.3103 15.094 91.7694 7.52356 94.1992 0C98.7133 2.86305 103.526 6.07739 105.323 11.1243C105.964 13.1486 106.286 15.2601 106.278 17.3832C106.533 25.198 105.385 32.9952 102.888 40.4047C101.676 43.9938 99.8726 48.8007 96.5119 50.5513C100.376 50.2234 104.246 51.7691 107.261 54.2047C109.135 55.727 110.815 57.7938 110.909 60.206C111.02 62.8817 109.211 65.2061 107.49 67.2319C110.037 67.1207 112.39 69.0235 113.345 71.3948C114.299 73.766 114.024 76.4651 113.204 78.8773C111.851 82.8137 109.135 86.1364 105.546 88.2452C108.602 86.4887 112.285 93.5146 111.705 95.7863C111.237 97.6247 109.99 99.147 108.848 100.663C107.794 102.057 106.705 103.591 106.606 105.394C106.641 104.768 113.468 108.046 114.024 108.837C114.738 109.873 114.721 111.179 114.914 112.35C118.023 112.449 121.53 110.74 124.791 110.506Z" fill="#FFEDC9"/>
<path d="M101.009 6.65095C103.171 7.97916 104.834 9.98374 105.74 12.3536C107.83 18.0739 106.864 24.245 105.652 30.1467C104.978 33.6279 104.055 37.056 102.888 40.4045C102.303 41.9853 101.46 43.976 100.816 45.5217C100.222 46.9099 99.1528 48.0411 97.8005 48.7126C94.5627 50.4691 90.8039 47.2313 87.9818 45.7852C85.9443 44.7371 83.3857 43.2734 82.8412 40.8436C82.4372 39.0462 83.6667 37.5824 84.8377 36.3822C86.2002 35.0263 87.4568 33.5681 88.5966 32.0203C91.2254 28.3492 92.9526 24.3562 94.51 20.1524C95.681 16.938 96.9164 13.8174 97.1447 10.3454C97.2384 8.86997 97.2267 7.38867 97.2501 5.90738C97.2236 5.68534 97.2821 5.46148 97.414 5.28091C97.6599 5.02915 98.0815 5.1521 98.4035 5.28091C99.3096 5.66228 100.181 6.12064 101.009 6.65095Z" fill="#FFC2C4"/>
<path d="M14.0579 53.8185C17.1961 56.787 21.3999 59.0528 22.8402 63.1278C23.7419 65.6864 23.3496 68.4968 22.8402 71.1608C22.3543 73.614 21.7044 76.1667 20.0299 78.0286C13.9232 84.8378 6.08934 72.4196 3.78836 67.5424C-0.169556 59.1523 -1.01852 43.2914 5.0296 35.5337C8.67135 30.8497 7.37156 39.3511 7.64089 41.2188C8.32129 46.0148 10.579 50.4478 14.0579 53.8185Z" fill="#FFC2C4"/>
<path d="M91.002 80.7719C93.7188 79.9148 95.0181 76.3576 93.9042 72.8268C92.7902 69.2959 89.6848 67.1283 86.968 67.9855C84.2512 68.8426 82.9519 72.3998 84.0658 75.9307C85.1798 79.4615 88.2852 81.6291 91.002 80.7719Z" fill="black"/>
<path d="M40.752 98.1037C43.4688 97.2466 44.7681 93.6894 43.6542 90.1585C42.5402 86.6277 39.4348 84.4601 36.718 85.3173C34.0012 86.1744 32.7019 89.7316 33.8158 93.2624C34.9298 96.7933 38.0352 98.9609 40.752 98.1037Z" fill="black"/>
<path d="M49.7906 93.7778C49.2952 94.1168 48.8291 94.4967 48.3972 94.9136C44.0821 99.1233 47.7297 107.262 51.2251 110.792C63.0052 122.695 84.5571 117.332 90.8745 102.232C93.9366 94.9078 91.5888 85.9615 83.9189 82.7237C78.2103 80.3056 72.4491 82.6417 67.3495 85.4052C63.9361 87.2613 60.3822 88.7601 56.8575 90.3995C54.539 91.4826 51.9218 92.3023 49.7906 93.7778Z" fill="white"/>
<path d="M65.5691 94.539C66.6946 94.4652 67.7892 94.1397 68.7722 93.5864C69.7551 93.0331 70.6013 92.2662 71.2483 91.3423C71.8338 90.4874 72.2437 89.5155 72.8936 88.7075C73.5434 87.8996 74.5505 87.2614 75.5693 87.4429C82.6537 88.7076 74.4861 101.823 70.1476 102.572C68.1452 102.917 66.096 102.338 64.1639 101.694C61.7575 100.886 59.3102 99.9373 57.501 98.1339C56.8401 97.5557 56.3926 96.7722 56.2305 95.9091C55.7562 91.7872 63.6369 94.6737 65.5691 94.539Z" fill="black"/>
<path d="M61.0967 107.01C62.1128 107.789 63.338 108.247 64.6158 108.327C65.8937 108.406 67.1662 108.103 68.2709 107.456C69.3756 106.809 70.2623 105.847 70.8178 104.693C71.3733 103.54 71.5724 102.247 71.3896 100.98C72.5606 103.48 75.9857 104.627 78.6438 103.907C79.9643 103.505 81.108 102.664 81.8861 101.524C82.6643 100.384 83.0303 99.0126 82.9238 97.6364" stroke="black" stroke-width="2.98831" stroke-linecap="round" stroke-linejoin="round"/>
<defs>
<linearGradient id="paint0_linear_461_963" x1="-8.18318e-06" y1="191" x2="162" y2="28" gradientUnits="userSpaceOnUse">
<stop stop-color="#4136C3"/>
<stop offset="1" stop-color="#C2B7FF"/>
</linearGradient>
</defs>
</svg>
