<svg width="250" height="11" viewBox="0 0 250 11" fill="none" xmlns="http://www.w3.org/2000/svg">
<path d="M4.056 10.144C3.496 10.144 2.976 10.04 2.496 9.832C2.016 9.616 1.608 9.324 1.272 8.956C0.936 8.588 0.688 8.164 0.528 7.684L1.728 7.18C1.944 7.732 2.26 8.156 2.676 8.452C3.092 8.748 3.572 8.896 4.116 8.896C4.436 8.896 4.716 8.848 4.956 8.752C5.196 8.648 5.38 8.504 5.508 8.32C5.644 8.136 5.712 7.924 5.712 7.684C5.712 7.356 5.62 7.096 5.436 6.904C5.252 6.712 4.98 6.56 4.62 6.448L2.94 5.92C2.268 5.712 1.756 5.396 1.404 4.972C1.052 4.54 0.876 4.036 0.876 3.46C0.876 2.956 1 2.516 1.248 2.14C1.496 1.756 1.836 1.456 2.268 1.24C2.708 1.024 3.208 0.916 3.768 0.916C4.304 0.916 4.792 1.012 5.232 1.204C5.672 1.388 6.048 1.644 6.36 1.972C6.68 2.3 6.912 2.68 7.056 3.112L5.88 3.628C5.704 3.156 5.428 2.792 5.052 2.536C4.684 2.28 4.256 2.152 3.768 2.152C3.472 2.152 3.212 2.204 2.988 2.308C2.764 2.404 2.588 2.548 2.46 2.74C2.34 2.924 2.28 3.14 2.28 3.388C2.28 3.676 2.372 3.932 2.556 4.156C2.74 4.38 3.02 4.548 3.396 4.66L4.956 5.152C5.668 5.368 6.204 5.68 6.564 6.088C6.924 6.488 7.104 6.988 7.104 7.588C7.104 8.084 6.972 8.524 6.708 8.908C6.452 9.292 6.096 9.596 5.64 9.82C5.184 10.036 4.656 10.144 4.056 10.144ZM12.1975 10V2.32H9.82153V1.06H15.9415V2.32H13.6015V10H12.1975ZM17.5306 10L20.6746 1.06H22.4266L25.5706 10H24.0586L23.3746 7.996H19.7386L19.0426 10H17.5306ZM20.1466 6.736H22.9426L21.3586 2.056H21.7546L20.1466 6.736ZM29.9754 10V5.968L26.9154 1.06H28.5114L30.9594 5.032H30.3954L32.8314 1.06H34.4274L31.3794 5.968V10H29.9754ZM40.6343 10L43.7783 1.06H45.5303L48.6743 10H47.1623L46.4783 7.996H42.8423L42.1463 10H40.6343ZM43.2503 6.736H46.0463L44.4623 2.056H44.8583L43.2503 6.736ZM51.6549 10V1.06H53.0709V4.996H57.2109V1.06H58.6149V10H57.2109V6.256H53.0709V10H51.6549ZM62.3874 10V1.06H68.2794V2.32H63.8034V4.888H68.0394V6.148H63.8034V8.74H68.2794V10H62.3874ZM70.7225 10L73.8665 1.06H75.6185L78.7625 10H77.2505L76.5665 7.996H72.9305L72.2345 10H70.7225ZM73.3385 6.736H76.1345L74.5505 2.056H74.9465L73.3385 6.736ZM81.7431 10V1.06H84.6711C85.5991 1.06 86.4031 1.248 87.0831 1.624C87.7711 1.992 88.3031 2.512 88.6791 3.184C89.0551 3.856 89.2431 4.636 89.2431 5.524C89.2431 6.404 89.0551 7.184 88.6791 7.864C88.3031 8.536 87.7711 9.06 87.0831 9.436C86.4031 9.812 85.5991 10 84.6711 10H81.7431ZM83.1591 8.74H84.6951C85.3271 8.74 85.8751 8.608 86.3391 8.344C86.8111 8.08 87.1751 7.708 87.4311 7.228C87.6871 6.748 87.8151 6.18 87.8151 5.524C87.8151 4.868 87.6831 4.304 87.4191 3.832C87.1631 3.352 86.8031 2.98 86.3391 2.716C85.8751 2.452 85.3271 2.32 84.6951 2.32H83.1591V8.74ZM98.2433 10L95.7833 1.06H97.2833L99.2753 8.8H98.9033L100.967 1.06H102.443L104.507 8.8H104.123L106.127 1.06H107.615L105.167 10H103.571L101.495 2.38H101.915L99.8273 10H98.2433ZM110.589 10V1.06H112.005V10H110.589ZM117.363 10V2.32H114.987V1.06H121.107V2.32H118.767V10H117.363ZM124.085 10V1.06H125.501V4.996H129.641V1.06H131.045V10H129.641V6.256H125.501V10H124.085ZM138.043 10L141.187 1.06H142.939L146.083 10H144.571L143.887 7.996H140.251L139.555 10H138.043ZM140.659 6.736H143.455L141.871 2.056H142.267L140.659 6.736ZM149.064 10V1.06H150.48V10H149.064ZM158.271 10V1.06H159.687V10H158.271ZM163.461 10V1.06H164.601L169.617 7.984L169.077 8.068V1.06H170.481V10H169.341L164.361 3.028L164.877 2.932V10H163.461ZM174.252 10V1.06H175.392L180.408 7.984L179.868 8.068V1.06H181.272V10H180.132L175.152 3.028L175.668 2.932V10H174.252ZM189.387 10.144C188.739 10.144 188.135 10.028 187.575 9.796C187.023 9.564 186.535 9.24 186.111 8.824C185.695 8.408 185.367 7.92 185.127 7.36C184.895 6.8 184.779 6.188 184.779 5.524C184.779 4.86 184.895 4.248 185.127 3.688C185.367 3.12 185.695 2.632 186.111 2.224C186.527 1.808 187.015 1.488 187.575 1.264C188.135 1.032 188.739 0.916 189.387 0.916C190.043 0.916 190.647 1.032 191.199 1.264C191.759 1.488 192.247 1.808 192.663 2.224C193.087 2.64 193.415 3.128 193.647 3.688C193.879 4.248 193.995 4.86 193.995 5.524C193.995 6.188 193.875 6.8 193.635 7.36C193.403 7.92 193.079 8.408 192.663 8.824C192.247 9.24 191.759 9.564 191.199 9.796C190.639 10.028 190.035 10.144 189.387 10.144ZM189.387 8.848C189.851 8.848 190.275 8.764 190.659 8.596C191.051 8.428 191.391 8.196 191.679 7.9C191.967 7.596 192.191 7.244 192.351 6.844C192.511 6.436 192.591 5.996 192.591 5.524C192.591 5.052 192.511 4.616 192.351 4.216C192.191 3.816 191.967 3.464 191.679 3.16C191.391 2.856 191.051 2.62 190.659 2.452C190.275 2.284 189.851 2.2 189.387 2.2C188.923 2.2 188.495 2.284 188.103 2.452C187.719 2.62 187.383 2.856 187.095 3.16C186.807 3.464 186.583 3.816 186.423 4.216C186.271 4.616 186.195 5.052 186.195 5.524C186.195 5.996 186.271 6.436 186.423 6.844C186.583 7.244 186.807 7.596 187.095 7.9C187.383 8.196 187.723 8.428 188.115 8.596C188.507 8.764 188.931 8.848 189.387 8.848ZM199.64 10L196.472 1.06H197.996L200.588 8.692H200.288L202.868 1.06H204.392L201.224 10H199.64ZM205.974 10L209.118 1.06H210.87L214.014 10H212.502L211.818 7.996H208.182L207.486 10H205.974ZM208.59 6.736H211.386L209.802 2.056H210.198L208.59 6.736ZM217.981 10V2.32H215.605V1.06H221.725V2.32H219.385V10H217.981ZM224.703 10V1.06H226.119V10H224.703ZM234.237 10.144C233.589 10.144 232.985 10.028 232.425 9.796C231.873 9.564 231.385 9.24 230.961 8.824C230.545 8.408 230.217 7.92 229.977 7.36C229.745 6.8 229.629 6.188 229.629 5.524C229.629 4.86 229.745 4.248 229.977 3.688C230.217 3.12 230.545 2.632 230.961 2.224C231.377 1.808 231.865 1.488 232.425 1.264C232.985 1.032 233.589 0.916 234.237 0.916C234.893 0.916 235.497 1.032 236.049 1.264C236.609 1.488 237.097 1.808 237.513 2.224C237.937 2.64 238.265 3.128 238.497 3.688C238.729 4.248 238.845 4.86 238.845 5.524C238.845 6.188 238.725 6.8 238.485 7.36C238.253 7.92 237.929 8.408 237.513 8.824C237.097 9.24 236.609 9.564 236.049 9.796C235.489 10.028 234.885 10.144 234.237 10.144ZM234.237 8.848C234.701 8.848 235.125 8.764 235.509 8.596C235.901 8.428 236.241 8.196 236.529 7.9C236.817 7.596 237.041 7.244 237.201 6.844C237.361 6.436 237.441 5.996 237.441 5.524C237.441 5.052 237.361 4.616 237.201 4.216C237.041 3.816 236.817 3.464 236.529 3.16C236.241 2.856 235.901 2.62 235.509 2.452C235.125 2.284 234.701 2.2 234.237 2.2C233.773 2.2 233.345 2.284 232.953 2.452C232.569 2.62 232.233 2.856 231.945 3.16C231.657 3.464 231.433 3.816 231.273 4.216C231.121 4.616 231.045 5.052 231.045 5.524C231.045 5.996 231.121 6.436 231.273 6.844C231.433 7.244 231.657 7.596 231.945 7.9C232.233 8.196 232.573 8.428 232.965 8.596C233.357 8.764 233.781 8.848 234.237 8.848ZM242.348 10V1.06H243.488L248.504 7.984L247.964 8.068V1.06H249.368V10H248.228L243.248 3.028L243.764 2.932V10H242.348Z" fill="url(#paint0_linear_402_1169)"/>
<defs>
<linearGradient id="paint0_linear_402_1169" x1="0" y1="5.5" x2="251" y2="5.5" gradientUnits="userSpaceOnUse">
<stop offset="0.015" stop-color="#3E3083"/>
<stop offset="0.57" stop-color="#4136C3"/>
<stop offset="1" stop-color="#E8D7F8"/>
</linearGradient>
</defs>
</svg>
